<svg width="35" height="34" viewBox="0 0 35 34" fill="none" xmlns="http://www.w3.org/2000/svg">
<g clip-path="url(#clip0_14:368)">
<path d="M7.39999 11.6992V13.8992C7.39999 15.5992 5.99999 16.9992 4.29999 16.9992H3.89999C2.19999 16.9992 0.799988 15.5992 0.799988 13.8992V11.6992" stroke="#5A52FF" stroke-width="1.7" stroke-linecap="round" stroke-linejoin="round"/>
<path d="M14 11.6992V13.8992C14 15.5992 12.6 16.9992 10.9 16.9992H10.5C8.80002 16.9992 7.40002 15.5992 7.40002 13.8992V11.6992" stroke="#5A52FF" stroke-width="1.7" stroke-linecap="round" stroke-linejoin="round"/>
<path d="M20.6 11.6992V13.8992C20.6 15.5992 19.2 16.9992 17.5 16.9992H17.1C15.4 16.9992 14 15.5992 14 13.8992V11.6992" stroke="#5A52FF" stroke-width="1.7" stroke-linecap="round" stroke-linejoin="round"/>
<path d="M27.2 11.6992V13.8992C27.2 15.5992 25.8 16.9992 24.1 16.9992H23.7C22 16.9992 20.6 15.5992 20.6 13.8992V11.6992" stroke="#5A52FF" stroke-width="1.7" stroke-linecap="round" stroke-linejoin="round"/>
<path d="M33.7 11.6992V13.8992C33.7 15.5992 32.3 16.9992 30.6 16.9992H30.2C28.5 16.9992 27.1 15.5992 27.1 13.8992V11.6992" stroke="#5A52FF" stroke-width="1.7" stroke-linecap="round" stroke-linejoin="round"/>
<path d="M32.8 16.6992V32.9992H2.20001V16.6992" stroke="#5A52FF" stroke-width="1.7" stroke-linecap="round" stroke-linejoin="round"/>
<path d="M28.1 20.3008H22.6V33.0008H28.1V20.3008Z" stroke="#5A52FF" stroke-width="1.7" stroke-linecap="round" stroke-linejoin="round"/>
<path d="M18.8 20.3008H5.90002V29.4008H18.8V20.3008Z" stroke="#5A52FF" stroke-width="1.7" stroke-linecap="round" stroke-linejoin="round"/>
<path d="M33.7 11.7004L32 6.40039C31.7 5.50039 30.9 4.90039 30 4.90039H4.60002C3.70002 4.90039 2.90002 5.50039 2.60002 6.40039L0.900024 11.7004H33.7Z" stroke="#5A52FF" stroke-width="1.7" stroke-linecap="round" stroke-linejoin="round"/>
<path d="M25.9 0.900391H8.89999C7.69999 0.900391 6.79999 1.80039 6.79999 3.00039V5.00039H28.1V3.00039C28.1 1.80039 27.1 0.900391 25.9 0.900391Z" stroke="#5A52FF" stroke-width="1.7" stroke-linecap="round" stroke-linejoin="round"/>
</g>
<defs>
<clipPath id="clip0_14:368">
<rect width="34.6" height="33.8" fill="white"/>
</clipPath>
</defs>
</svg>
