<svg width="18" height="35" viewBox="0 0 18 35" fill="none" xmlns="http://www.w3.org/2000/svg">
<g clip-path="url(#clip0_14:310)">
<path d="M16.9 13.0997L0.599972 17.5997C0.299972 17.6997 0.0999723 18.0997 0.0999723 18.4997C0.199972 18.7997 0.499972 19.0997 0.899972 19.0997C2.29997 19.0997 3.59997 19.5997 4.59997 20.4997C5.59997 21.5997 6.19997 22.9997 6.19997 24.4997H4.89997C4.59997 24.4997 4.29997 24.7997 4.19997 24.9997C3.19997 30.0997 5.49997 31.6997 6.69997 31.9997L6.99997 33.9997C7.09997 34.3997 7.29997 34.6997 7.69997 34.6997H10.3C10.6 34.6997 10.9 34.3997 11 34.0997L11.3 32.0997C12.5 31.6997 14.8 30.1997 13.8 25.0997C13.7 24.7997 13.5 24.5997 13.1 24.5997H11.6C11.7 23.3997 12.1 22.1997 13.1 21.2997C14 20.4997 15.2 20.0997 16.4 20.0997C16.8 20.0997 17.2 19.7997 17.2 19.3997C17.2 18.9997 16.9 18.5997 16.5 18.5997C14.9 18.4997 13.4 19.0997 12.2 20.1997C11 21.3997 10.3 22.9997 10.3 24.5997H7.79997C7.79997 22.6997 6.89997 20.8997 5.59997 19.4997C5.09997 18.9997 4.49997 18.5997 3.89997 18.3997L17.4 14.5997C17.8 14.4997 18.1 14.0997 18 13.6997C17.9 13.2997 17.5 12.9997 17.1 13.0997C17 12.9997 17 12.9997 16.9 13.0997ZM10.6 30.7997C10.3 30.8997 10.1 31.0997 10.1 31.2997L9.79997 33.1997H8.29997L7.99997 31.3997C7.89997 31.0997 7.69997 30.8997 7.49997 30.8997C6.29997 30.5997 5.09997 29.2997 5.59997 25.9997H12.5C13 29.1997 11.8 30.6997 10.6 30.7997ZM0.899972 13.3997H1.09997L17.4 8.8997C17.8 8.7997 18.1 8.3997 18 7.9997C17.9 7.5997 17.5 7.2997 17.1 7.3997C17 7.3997 17 7.3997 16.9 7.4997L0.599972 11.8997C0.199972 11.9997 -0.100028 12.2997 -2.77013e-05 12.7997C0.0999723 13.2997 0.499972 13.4997 0.899972 13.3997ZM0.899972 7.6997H1.09997L11.7 4.5997C13.3 4.0997 14.2 2.2997 13.6 0.799702L13.5 0.599702C13.3 0.199702 13 -0.000297852 12.6 0.0997021C12.2 0.299702 12 0.599702 12.1 0.999702C12.4 1.6997 12.3 2.5997 11.5 2.9997L11.3 3.2997L0.599972 6.2997C0.199972 6.2997 -0.100028 6.6997 -2.77013e-05 7.0997C0.0999723 7.4997 0.499972 7.7997 0.899972 7.6997Z" fill="#5A52FF"/>
</g>
<defs>
<clipPath id="clip0_14:310">
<rect width="18" height="34.7" fill="white"/>
</clipPath>
</defs>
</svg>
