<svg width="40" height="30" viewBox="0 0 40 30" fill="none" xmlns="http://www.w3.org/2000/svg">
<g clip-path="url(#clip0_14:355)">
<path d="M10.9 19.9992C11.1 19.9992 11.3 19.8992 11.5 19.7992C11.7 19.5992 11.7 19.3992 11.7 19.1992C11.7 18.9992 11.6 18.7992 11.5 18.5992C11.2 18.2992 10.6 18.2992 10.3 18.5992C10.1 18.7992 10.1 18.9992 10.1 19.1992C10.1 19.5992 10.4 19.8992 10.9 19.9992C10.9 19.8992 10.9 19.8992 10.9 19.9992ZM22.6 18.2992H24.3C24.8 18.2992 25.1 17.8992 25.1 17.4992C25.1 17.0992 24.7 16.6992 24.3 16.6992H22.6C22.1 16.6992 21.8 17.0992 21.8 17.4992C21.8 17.8992 22.1 18.2992 22.6 18.2992ZM22.6 13.2992H24.3C24.8 13.2992 25.1 12.8992 25.1 12.4992C25.1 11.9992 24.7 11.6992 24.3 11.6992H22.6C22.1 11.6992 21.8 12.0992 21.8 12.4992C21.7 12.8992 22.1 13.2992 22.6 13.2992ZM29.3 18.2992H31C31.5 18.2992 31.8 17.8992 31.8 17.4992C31.8 17.0992 31.4 16.6992 31 16.6992H29.3C28.8 16.6992 28.5 17.0992 28.5 17.4992C28.5 17.8992 28.8 18.2992 29.3 18.2992ZM29.3 23.2992H31C31.5 23.2992 31.8 22.8992 31.8 22.4992C31.8 21.9992 31.4 21.6992 31 21.6992H29.3C28.8 21.6992 28.5 22.0992 28.5 22.4992C28.4 22.9992 28.8 23.2992 29.3 23.2992ZM29.3 13.2992H31C31.5 13.2992 31.8 12.8992 31.8 12.4992C31.8 11.9992 31.4 11.6992 31 11.6992H29.3C28.8 11.6992 28.5 12.0992 28.5 12.4992C28.4 12.8992 28.8 13.2992 29.3 13.2992Z" fill="#5A52FF"/>
<path d="M39.5 9.10008L15.1 0.100078C14.7 -0.0999218 14.2 0.100078 14 0.600078C13.8 1.00008 14 1.50008 14.5 1.70008L16.7 2.50008V11.0001L0.7 15.1001C0.3 15.1001 -0.1 15.6001 -2.76603e-07 16.0001C0.0999997 16.5001 0.5 16.8001 0.9 16.7001H1.1L3.3 16.1001V29.1001C3.3 29.6001 3.7 29.9001 4.1 29.9001H35.8C36.3 29.9001 36.6 29.5001 36.6 29.1001V10.0001L38.7 10.8001C39.1 11.0001 39.6 10.7001 39.8 10.3001C40.1 9.80008 39.9 9.30008 39.5 9.10008ZM5 15.7001L16.7 12.7001V28.4001H15V22.6001C15 22.1001 14.6 21.8001 14.2 21.8001H7.5C7 21.8001 6.7 22.2001 6.7 22.6001V28.4001H5V15.7001ZM8.4 28.3001V23.3001H13.4V28.3001H8.4ZM23.4 28.3001V23.3001H25.1V28.3001H23.4ZM35.1 9.30008V28.3001H26.8V22.5001C26.8 22.0001 26.4 21.7001 26 21.7001H22.7C22.2 21.7001 21.9 22.1001 21.9 22.5001V28.3001H18.6V3.10008L35.1 9.30008Z" fill="#5A52FF"/>
</g>
<defs>
<clipPath id="clip0_14:355">
<rect width="40" height="29.9" fill="white"/>
</clipPath>
</defs>
</svg>
