<svg width="47" height="31" viewBox="0 0 47 31" fill="none" xmlns="http://www.w3.org/2000/svg">
<g clip-path="url(#clip0_14:149)">
<path d="M36.5 29.3008C41.4706 29.3008 45.5 25.2713 45.5 20.3008C45.5 15.3302 41.4706 11.3008 36.5 11.3008C31.5294 11.3008 27.5 15.3302 27.5 20.3008C27.5 25.2713 31.5294 29.3008 36.5 29.3008Z" stroke="#5A52FF" stroke-width="1.5" stroke-linecap="round" stroke-linejoin="round"/>
<path d="M9.7998 29.3008C14.7704 29.3008 18.7998 25.2713 18.7998 20.3008C18.7998 15.3302 14.7704 11.3008 9.7998 11.3008C4.82924 11.3008 0.799805 15.3302 0.799805 20.3008C0.799805 25.2713 4.82924 29.3008 9.7998 29.3008Z" stroke="#5A52FF" stroke-width="1.5" stroke-linecap="round" stroke-linejoin="round"/>
<path d="M23.0999 24.7008C24.3149 24.7008 25.2999 23.7158 25.2999 22.5008C25.2999 21.2858 24.3149 20.3008 23.0999 20.3008C21.8849 20.3008 20.8999 21.2858 20.8999 22.5008C20.8999 23.7158 21.8849 24.7008 23.0999 24.7008Z" stroke="#5A52FF" stroke-width="1.5" stroke-linecap="round" stroke-linejoin="round"/>
<path d="M23.0996 22.5L24.2996 26.7L26.0996 26.9" stroke="#5A52FF" stroke-width="1.5" stroke-linecap="round" stroke-linejoin="round"/>
<path d="M36.2996 20.0016L29.0996 3.10156H34.6996C34.6996 3.10156 36.3996 3.20156 36.3996 5.10156C36.3996 7.00156 34.7996 7.00156 34.7996 7.00156L33.6996 7.10156" stroke="#5A52FF" stroke-width="1.5" stroke-linecap="round" stroke-linejoin="round"/>
<path d="M23.0996 20.3L31.3996 9" stroke="#5A52FF" stroke-width="1.5" stroke-linecap="round" stroke-linejoin="round"/>
<path d="M9.7998 20.3L16.4998 7.5H30.7998" stroke="#5A52FF" stroke-width="1.5" stroke-linecap="round" stroke-linejoin="round"/>
<path d="M21.4997 20.5008L15.6997 3.80078" stroke="#5A52FF" stroke-width="1.5" stroke-linecap="round" stroke-linejoin="round"/>
<path d="M12.6996 0.800781L18.7996 1.00078C18.7996 1.00078 19.9996 1.30078 19.0996 2.30078C19.0996 2.30078 16.7996 3.70078 14.7996 3.80078C12.8996 3.90078 9.79957 1.00078 12.6996 0.800781Z" stroke="#5A52FF" stroke-width="1.5" stroke-linecap="round" stroke-linejoin="round"/>
</g>
<defs>
<clipPath id="clip0_14:149">
<rect width="46.3" height="30.1" fill="white"/>
</clipPath>
</defs>
</svg>
