<svg width="34" height="28" viewBox="0 0 34 28" fill="none" xmlns="http://www.w3.org/2000/svg">
<g clip-path="url(#clip0_14:230)">
<path d="M31 1C29.4 0.3 27.3 0 25.1 0C22.9 0 20.8 0.4 19.2 1C18.2 1.4 17.5 1.9 17 2.4C16.5 1.9 15.8 1.4 14.8 1C13.1 0.4 11 0 8.8 0C6.6 0 4.5 0.4 2.8 1C1 1.8 0 2.8 0 4V19.8C0 21 1 22 2.8 22.8C4.3 23.4 6.2 23.8 8.3 23.8C8.3 26.1 12 27.8 16.9 27.8C21.8 27.8 25.5 26.1 25.5 23.8C27.5 23.8 29.5 23.4 31 22.8C32.8 22.1 33.8 21 33.8 19.9V4C33.8 2.8 32.8 1.8 31 1ZM32.5 15.8C32.5 16.4 31.7 17 30.5 17.5C29.2 18 27.4 18.4 25.5 18.4V15.8C27.5 15.8 29.5 15.4 31 14.8C31.6 14.6 32.1 14.3 32.5 14V15.8ZM16.2 7.9C16.2 8.5 15.4 9.1 14.2 9.6C12.7 10.2 10.8 10.5 8.7 10.5C6.6 10.5 4.7 10.2 3.2 9.6C2 9.1 1.2 8.4 1.2 7.9V6.1C1.6 6.4 2.1 6.7 2.7 6.9C4.3 7.6 6.4 7.9 8.6 7.9C10.8 7.9 12.9 7.5 14.5 6.9C15.1 6.7 15.6 6.4 16 6.1V7.9H16.2ZM2.8 10.9C4.4 11.6 6.5 11.9 8.7 11.9C10.9 11.9 13 11.5 14.6 10.9C15.2 10.7 15.7 10.4 16.1 10.1V11.9C14.4 12 12.8 12.2 11.4 12.7C10.1 13.2 9.1 13.8 8.6 14.5C6.6 14.5 4.6 14.2 3.2 13.6C2 13.1 1.2 12.4 1.2 11.9V10.1C1.7 10.4 2.2 10.6 2.8 10.9ZM1.3 14C1.7 14.3 2.2 14.6 2.8 14.8C4.3 15.4 6.2 15.8 8.3 15.8V18.4C6.4 18.4 4.6 18 3.3 17.5C2.1 17 1.3 16.3 1.3 15.8V14ZM9.7 15.5C10.2 14.4 13 13.2 16.9 13.2C20.8 13.2 23.6 14.4 24.1 15.5C24.1 15.6 24.2 15.7 24.2 15.8C24.2 16.4 23.5 17 22.3 17.5C20.9 18.1 19 18.4 17 18.4C15 18.4 13.1 18.1 11.7 17.5C10.5 17 9.8 16.4 9.8 15.8C9.6 15.7 9.7 15.6 9.7 15.5ZM32.5 11.9C32.5 12.5 31.7 13.1 30.5 13.6C29 14.2 27 14.5 25 14.5C24.5 13.8 23.5 13.1 22.2 12.7C20.9 12.2 19.2 12 17.5 11.9V10.1C17.9 10.4 18.4 10.7 19 10.9C20.6 11.6 22.7 11.9 24.9 11.9C27.1 11.9 29.2 11.5 30.8 10.9C31.4 10.7 31.9 10.4 32.3 10.1V11.9H32.5ZM32.5 7.9C32.5 8.5 31.7 9.1 30.5 9.6C29 10.2 27 10.6 25 10.6C23 10.6 21 10.3 19.5 9.7C18.3 9.2 17.5 8.5 17.5 8V6.1C17.9 6.4 18.4 6.7 19 6.9C20.6 7.6 22.7 7.9 24.9 7.9C27.1 7.9 29.2 7.5 30.8 6.9C31.4 6.7 31.9 6.4 32.3 6.1V7.9H32.5ZM19.6 2.2C21 1.7 23 1.3 25 1.3C27 1.3 29 1.6 30.5 2.2C31.7 2.7 32.5 3.4 32.5 3.9C32.5 4.4 31.7 5.1 30.5 5.6C29 6.3 27 6.6 25 6.6C23 6.6 21 6.3 19.5 5.7C18.3 5.2 17.5 4.5 17.5 4C17.5 3.5 18.3 2.7 19.6 2.2ZM3.3 2.2C4.8 1.6 6.7 1.3 8.8 1.3C10.9 1.3 12.8 1.6 14.3 2.2C15.5 2.7 16.3 3.4 16.3 3.9C16.3 4.4 15.5 5.1 14.3 5.6C12.8 6.2 10.9 6.5 8.8 6.5C6.7 6.5 4.8 6.2 3.3 5.6C2.1 5.1 1.3 4.4 1.3 3.9C1.3 3.4 2.1 2.7 3.3 2.2ZM3.3 21.5C2.1 21 1.3 20.3 1.3 19.8V18C1.7 18.3 2.2 18.6 2.8 18.8C4.3 19.4 6.2 19.8 8.3 19.8V22.4C6.5 22.4 4.7 22.1 3.3 21.5ZM22.2 25.5C20.8 26.1 18.9 26.4 16.9 26.4C14.9 26.4 13 26.1 11.6 25.5C10.4 25 9.7 24.4 9.7 23.8V22C9.8 22.1 10 22.2 10.2 22.3C11.2 22.9 12.6 23.3 14.2 23.6H14.3C14.6 23.6 14.9 23.4 15 23C15.1 22.6 14.8 22.3 14.4 22.3C11.3 21.8 9.7 20.7 9.7 19.8V18C11.2 19.1 13.8 19.8 17 19.8C20.2 19.8 22.8 19.1 24.3 18V19.8C24.3 20.7 22.6 21.8 19.6 22.3C19.2 22.4 19 22.7 19 23C19 23.3 19.3 23.6 19.7 23.6H19.8C21.4 23.4 22.8 22.9 23.8 22.3C24 22.2 24.1 22.1 24.3 22V23.8C24.2 24.3 23.4 25 22.2 25.5ZM30.5 21.5C29.2 22 27.4 22.4 25.5 22.4V19.8C27.5 19.8 29.5 19.4 31 18.8C31.6 18.6 32.1 18.3 32.5 18V19.8C32.5 20.4 31.7 21 30.5 21.5Z" fill="#5A52FF"/>
</g>
<defs>
<clipPath id="clip0_14:230">
<rect width="33.8" height="27.7" fill="white"/>
</clipPath>
</defs>
</svg>
