<?xml version="1.0" encoding="UTF-8"?>
<svg width="1280px" height="1517px" viewBox="0 0 1280 1517" version="1.1" xmlns="http://www.w3.org/2000/svg" xmlns:xlink="http://www.w3.org/1999/xlink">
    <!-- Generator: Sketch 64 (93537) - https://sketch.com -->
    <title>Background</title>
    <desc>Created with Sketch.</desc>
    <g id="Background" stroke="none" stroke-width="1" fill="none" fill-rule="evenodd">
        <rect fill="#F7F7FF" x="0" y="0" width="1280" height="1517"></rect>
        <rect id="Rectangle-Copy" fill="#EEEDFF" x="0" y="0" width="1280" height="1517"></rect>
        <circle id="Oval-Copy" stroke="#8A85FF" stroke-width="51" opacity="0.0909133185" cx="10.5" cy="567.5" r="119.5"></circle>
        <circle id="Oval-Copy-3" stroke="#5A52FF" stroke-width="51" opacity="0.0909133185" cx="1269.5" cy="197.5" r="119.5"></circle>
        <g id="Group" transform="translate(933.000000, 306.000000)">
            <circle id="Oval" fill="#C7C5F8" cx="4.5" cy="4.5" r="4.5"></circle>
            <circle id="Oval-Copy-8" fill="#C7C5F8" cx="4.5" cy="28.5" r="4.5"></circle>
            <circle id="Oval-Copy-4" fill="#5A52FF" opacity="0.347702753" cx="29.5" cy="4.5" r="4.5"></circle>
            <circle id="Oval-Copy-9" fill="#C7C5F8" cx="29.5" cy="28.5" r="4.5"></circle>
            <circle id="Oval-Copy-5" fill="#C7C5F8" cx="53.5" cy="4.5" r="4.5"></circle>
            <circle id="Oval-Copy-10" fill="#C7C5F8" cx="53.5" cy="28.5" r="4.5"></circle>
            <circle id="Oval-Copy-6" fill="#C7C5F8" cx="77.5" cy="4.5" r="4.5"></circle>
            <circle id="Oval-Copy-11" fill="#5A52FF" opacity="0.347702753" cx="77.5" cy="28.5" r="4.5"></circle>
            <circle id="Oval-Copy-7" fill="#C7C5F8" cx="102.5" cy="4.5" r="4.5"></circle>
            <circle id="Oval-Copy-12" fill="#C7C5F8" cx="102.5" cy="28.5" r="4.5"></circle>
            <circle id="Oval-Copy-17" fill="#C7C5F8" cx="4.5" cy="51.5" r="4.5"></circle>
            <circle id="Oval-Copy-16" fill="#C7C5F8" cx="29.5" cy="51.5" r="4.5"></circle>
            <circle id="Oval-Copy-15" fill="#C7C5F8" cx="53.5" cy="51.5" r="4.5"></circle>
            <circle id="Oval-Copy-14" fill="#C7C5F8" cx="77.5" cy="51.5" r="4.5"></circle>
            <circle id="Oval-Copy-13" fill="#C7C5F8" cx="102.5" cy="51.5" r="4.5"></circle>
            <circle id="Oval-Copy-22" fill="#C7C5F8" cx="4.5" cy="74.5" r="4.5"></circle>
            <circle id="Oval-Copy-21" fill="#C7C5F8" cx="29.5" cy="74.5" r="4.5"></circle>
            <circle id="Oval-Copy-20" fill="#C7C5F8" cx="53.5" cy="74.5" r="4.5"></circle>
            <circle id="Oval-Copy-19" fill="#C7C5F8" cx="77.5" cy="74.5" r="4.5"></circle>
            <circle id="Oval-Copy-18" fill="#C7C5F8" cx="102.5" cy="74.5" r="4.5"></circle>
            <circle id="Oval-Copy-27" fill="#C7C5F8" cx="4.5" cy="97.5" r="4.5"></circle>
            <circle id="Oval-Copy-26" fill="#C7C5F8" cx="29.5" cy="97.5" r="4.5"></circle>
            <circle id="Oval-Copy-25" fill="#C7C5F8" cx="53.5" cy="97.5" r="4.5"></circle>
            <circle id="Oval-Copy-24" fill="#C7C5F8" cx="77.5" cy="97.5" r="4.5"></circle>
            <circle id="Oval-Copy-23" fill="#C7C5F8" cx="102.5" cy="97.5" r="4.5"></circle>
            <circle id="Oval-Copy-32" fill="#C7C5F8" cx="4.5" cy="120.5" r="4.5"></circle>
            <circle id="Oval-Copy-31" fill="#C7C5F8" cx="29.5" cy="120.5" r="4.5"></circle>
            <circle id="Oval-Copy-30" fill="#C7C5F8" cx="53.5" cy="120.5" r="4.5"></circle>
            <circle id="Oval-Copy-29" fill="#C7C5F8" cx="77.5" cy="120.5" r="4.5"></circle>
            <circle id="Oval-Copy-28" fill="#C7C5F8" cx="102.5" cy="120.5" r="4.5"></circle>
        </g>
        <g id="Group-Copy" transform="translate(-40.000000, 879.000000)">
            <circle id="Oval-Copy-5" fill="#C7C5F8" cx="53.5" cy="4.5" r="4.5"></circle>
            <circle id="Oval-Copy-10" fill="#C7C5F8" cx="53.5" cy="28.5" r="4.5"></circle>
            <circle id="Oval-Copy-6" fill="#C7C5F8" cx="77.5" cy="4.5" r="4.5"></circle>
            <circle id="Oval-Copy-11" fill="#5A52FF" opacity="0.398507254" cx="77.5" cy="28.5" r="4.5"></circle>
            <circle id="Oval-Copy-7" fill="#C7C5F8" cx="102.5" cy="4.5" r="4.5"></circle>
            <circle id="Oval-Copy-12" fill="#C7C5F8" cx="102.5" cy="28.5" r="4.5"></circle>
            <circle id="Oval-Copy-15" fill="#C7C5F8" cx="53.5" cy="51.5" r="4.5"></circle>
            <circle id="Oval-Copy-14" fill="#C7C5F8" cx="77.5" cy="51.5" r="4.5"></circle>
            <circle id="Oval-Copy-13" fill="#C7C5F8" cx="102.5" cy="51.5" r="4.5"></circle>
            <circle id="Oval-Copy-20" fill="#C7C5F8" cx="53.5" cy="74.5" r="4.5"></circle>
            <circle id="Oval-Copy-19" fill="#C7C5F8" cx="77.5" cy="74.5" r="4.5"></circle>
            <circle id="Oval-Copy-18" fill="#C7C5F8" cx="102.5" cy="74.5" r="4.5"></circle>
            <circle id="Oval-Copy-25" fill="#C7C5F8" cx="53.5" cy="97.5" r="4.5"></circle>
            <circle id="Oval-Copy-24" fill="#C7C5F8" cx="77.5" cy="97.5" r="4.5"></circle>
            <circle id="Oval-Copy-23" fill="#C7C5F8" cx="102.5" cy="97.5" r="4.5"></circle>
            <circle id="Oval-Copy-30" fill="#C7C5F8" cx="53.5" cy="120.5" r="4.5"></circle>
            <circle id="Oval-Copy-29" fill="#C7C5F8" cx="77.5" cy="120.5" r="4.5"></circle>
            <circle id="Oval-Copy-28" fill="#C7C5F8" cx="102.5" cy="120.5" r="4.5"></circle>
        </g>
        <circle id="Oval-Copy-2" stroke="#8F8CFF" stroke-width="51" opacity="0.0909133185" cx="1052.5" cy="981.5" r="119.5"></circle>
    </g>
</svg>