<svg width="234" height="234" viewBox="0 0 234 234" fill="none" xmlns="http://www.w3.org/2000/svg">
<mask id="mask0_332:2" style="mask-type:alpha" maskUnits="userSpaceOnUse" x="0" y="0" width="234" height="234">
<circle cx="117" cy="117" r="117" fill="#C4C4C4"/>
</mask>
<g mask="url(#mask0_332:2)">
<path d="M-22.3929 -92.0835L240.331 84.8117L-0.559063 223.889L-22.3929 -92.0835Z" fill="#07A08A"/>
<rect x="117" y="117" width="170.82" height="145.08" fill="#FFCC00"/>
<path d="M-57.7197 217.62L117.78 116.295V318.945L-57.7197 217.62Z" fill="#FFCC00"/>
<rect x="117" y="-63.1798" width="175.5" height="180.18" fill="#FFCC00"/>
</g>
<circle cx="117.515" cy="115.454" r="77.3128" fill="white"/>
<path d="M209.752 160.008C209.752 160.008 211.195 158.977 211.195 157.843C211.195 154.132 208.308 154.132 207.484 149.803C206.762 154.235 203.773 154.235 203.773 157.843C203.876 158.977 205.319 160.008 205.319 160.008C202.433 160.008 198 157.225 198 151.967C198.103 143.205 207.587 142.484 207.587 133C212.638 138.876 217.07 143.308 217.07 150.524C217.07 155.781 212.638 160.008 209.752 160.008Z" fill="white" stroke="white" stroke-width="1.5" stroke-linejoin="round"/>
<path d="M37.2943 74.7647H21.4918V68.2202C21.4918 67.9405 21.2753 67.7727 21.0589 67.7727C20.7883 67.7727 20.6259 67.9964 20.6259 68.2202V74.7647H18.4071C17.6494 74.7647 17 75.4359 17 76.219V80.8058C17 81.5889 17.6494 82.2042 18.4071 82.2042H37.3484C38.0519 82.2042 38.6472 81.5889 38.6472 80.8617V76.219C38.6472 75.4359 38.0519 74.7647 37.2943 74.7647ZM37.7272 80.8058C37.7272 81.0295 37.5649 81.2533 37.3484 81.2533H18.353C18.0824 81.2533 17.8659 81.0295 17.8659 80.8058V76.219C17.8659 75.9394 18.0824 75.7156 18.353 75.7156H37.2943C37.5649 75.7716 37.7272 75.9953 37.7272 76.219V80.8058Z" fill="white"/>
<path d="M34.551 76.8208C33.8909 76.8208 33.3408 77.3882 33.3408 78.0692C33.3408 78.7502 33.8909 79.3176 34.551 79.3176C35.2111 79.3176 35.7612 78.7502 35.7612 78.0692C35.7612 77.3882 35.2111 76.8208 34.551 76.8208ZM34.551 78.3529C34.386 78.3529 34.2759 78.2394 34.2759 78.0692C34.2759 77.899 34.386 77.7855 34.551 77.7855C34.716 77.7855 34.826 77.899 34.826 78.0692C34.826 78.2394 34.716 78.3529 34.551 78.3529ZM25.8043 71.4865C25.9693 71.6568 26.2994 71.6568 26.4644 71.4865C28.6098 69.4437 28.7199 65.9821 26.7395 63.8257L26.4644 63.542C26.2444 63.3717 25.9693 63.4285 25.8043 63.6555C25.6943 63.8257 25.6943 64.0527 25.8043 64.2229C27.5646 65.9253 27.6747 68.7627 26.0244 70.5786L25.8043 70.8056C25.6393 70.9191 25.5843 71.2028 25.8043 71.4865C25.8043 71.4298 25.8043 71.4298 25.8043 71.4865Z" fill="white"/>
<path d="M30.4697 67.7603C30.4697 69.6653 29.6966 71.4581 28.3713 72.7468C28.2056 72.9149 28.2056 73.251 28.4265 73.4191C28.5922 73.5872 28.8683 73.5872 29.034 73.4191C32.1264 70.4496 32.2369 65.4632 29.3101 62.3816C29.2549 62.2696 29.1444 62.2135 29.034 62.1015C28.8131 61.9334 28.537 61.9894 28.3713 62.1575C28.2056 62.3256 28.2056 62.6057 28.3713 62.7738C29.7519 64.0625 30.4697 65.8554 30.4697 67.7603ZM24.3401 69.8894C24.5057 70.0574 24.8371 70.0574 25.0027 69.8894C26.1624 68.8248 26.2729 66.9759 25.2236 65.7993C25.1684 65.6873 25.058 65.6312 25.0027 65.5752C24.8371 65.4071 24.5057 65.4071 24.3401 65.5752C24.1744 65.7433 24.1744 66.0795 24.3401 66.2476H24.3953C25.2236 66.9759 25.2788 68.2085 24.6162 69.0489C24.561 69.105 24.5057 69.217 24.3953 69.2731C24.2296 69.4411 24.1744 69.7213 24.3401 69.8894Z" fill="white"/>
<rect x="17.0005" y="74.6376" width="21.6472" height="7.21574" rx="1" fill="white"/>
<circle cx="35.0399" cy="78.2358" r="1.54626" fill="#07A08A"/>
<circle cx="35.0399" cy="78.2451" r="0.721574" fill="white"/>
</svg>


