<svg width="227" height="227" viewBox="0 0 227 227" fill="none" xmlns="http://www.w3.org/2000/svg">
<mask id="mask0_214:185" style="mask-type:alpha" maskUnits="userSpaceOnUse" x="0" y="0" width="227" height="227">
<circle cx="113.5" cy="113.5" r="113.5" fill="#C4C4C4"/>
</mask>
<g mask="url(#mask0_214:185)">
<path d="M-12.2595 -94.7925L234.409 81.5426L17.1168 206.996L-12.2595 -94.7925Z" fill="#07A08A"/>
<rect x="113.5" y="113.5" width="165.71" height="140.74" fill="#FBA700"/>
<path d="M-55.9934 211.11L114.257 112.816V309.404L-55.9934 211.11Z" fill="#D0C8FF"/>
<rect x="113.5" y="-61.29" width="170.25" height="174.79" fill="#00C7B1"/>
<path d="M-56.0662 14.3766L114.184 112.671L-56.0662 210.964L-56.0662 14.3766Z" fill="#FFCC00"/>
</g>
<circle cx="114" cy="112" r="75" fill="white"/>
<path d="M187.627 63C187.627 63 188.686 62.2748 188.686 61.4771C188.686 58.8664 186.568 58.8664 185.962 55.8206C185.432 58.9389 183.238 58.9389 183.238 61.4771C183.314 62.2748 184.373 63 184.373 63C182.254 63 179 61.042 179 57.3435C179.076 51.1794 186.038 50.6718 186.038 44C189.746 48.1336 193 51.2519 193 56.3282C193 60.0267 189.746 63 187.627 63Z" fill="white" stroke="white" stroke-width="1.5" stroke-linejoin="round"/>
<path d="M17.627 122C17.627 122 18.6865 121.237 18.6865 120.397C18.6865 117.649 16.5676 117.649 15.9622 114.443C15.4324 117.725 13.2378 117.725 13.2378 120.397C13.3135 121.237 14.373 122 14.373 122C12.2541 122 9 119.939 9 116.046C9.07568 109.557 16.0378 109.023 16.0378 102C19.7459 106.351 23 109.634 23 114.977C23 118.87 19.7459 122 17.627 122Z" fill="white" stroke="white" stroke-width="1.5" stroke-linejoin="round"/>
<path d="M186 182.101H174.32V177.264C174.32 177.057 174.16 176.933 174 176.933C173.8 176.933 173.68 177.099 173.68 177.264V182.101H172.04C171.48 182.101 171 182.597 171 183.176V186.566C171 187.145 171.48 187.6 172.04 187.6H186.04C186.56 187.6 187 187.145 187 186.607V183.176C187 182.597 186.56 182.101 186 182.101ZM186.32 186.566C186.32 186.731 186.2 186.897 186.04 186.897H172C171.8 186.897 171.64 186.731 171.64 186.566V183.176C171.64 182.969 171.8 182.804 172 182.804H186C186.2 182.845 186.32 183.011 186.32 183.176V186.566Z" fill="white"/>
<path d="M183.972 183.621C183.484 183.621 183.078 184.04 183.078 184.544C183.078 185.047 183.484 185.466 183.972 185.466C184.46 185.466 184.867 185.047 184.867 184.544C184.867 184.04 184.46 183.621 183.972 183.621ZM183.972 184.753C183.85 184.753 183.769 184.669 183.769 184.544C183.769 184.418 183.85 184.334 183.972 184.334C184.094 184.334 184.175 184.418 184.175 184.544C184.175 184.669 184.094 184.753 183.972 184.753ZM177.507 179.678C177.629 179.804 177.873 179.804 177.995 179.678C179.581 178.168 179.662 175.61 178.199 174.016L177.995 173.806C177.833 173.681 177.629 173.722 177.507 173.89C177.426 174.016 177.426 174.184 177.507 174.31C178.809 175.568 178.89 177.665 177.67 179.007L177.507 179.175C177.385 179.259 177.345 179.469 177.507 179.678C177.507 179.636 177.507 179.636 177.507 179.678Z" fill="white"/>
<path d="M180.956 176.924C180.956 178.332 180.384 179.657 179.405 180.61C179.282 180.734 179.282 180.982 179.446 181.107C179.568 181.231 179.772 181.231 179.895 181.107C182.18 178.912 182.262 175.226 180.099 172.949C180.058 172.866 179.976 172.824 179.895 172.742C179.731 172.617 179.527 172.659 179.405 172.783C179.282 172.907 179.282 173.114 179.405 173.239C180.425 174.191 180.956 175.516 180.956 176.924ZM176.425 178.498C176.548 178.622 176.793 178.622 176.915 178.498C177.772 177.711 177.854 176.344 177.078 175.475C177.038 175.392 176.956 175.35 176.915 175.309C176.793 175.185 176.548 175.185 176.425 175.309C176.303 175.433 176.303 175.682 176.425 175.806H176.466C177.078 176.344 177.119 177.255 176.629 177.877C176.589 177.918 176.548 178.001 176.466 178.042C176.344 178.166 176.303 178.373 176.425 178.498Z" fill="white"/>
<rect x="171" y="182.007" width="15.9997" height="5.33325" rx="1" fill="white"/>
<circle cx="184.333" cy="184.667" r="1.14286" fill="#FBA700"/>
<circle cx="184.333" cy="184.674" r="0.533325" fill="white"/>
<path d="M69.679 198.292C69.679 197.501 69.4358 196.772 69.0102 196.164L67.7335 194.34L66.2744 192.09C66.2136 192.03 66.1528 191.969 66.0313 191.969C65.9705 191.969 65.8489 192.03 65.7881 192.09L64.2682 194.34L62.9915 196.164C62.5659 196.772 62.3228 197.501 62.3228 198.292C62.3228 200.359 63.9642 202 65.9705 202C68.0375 202 69.679 200.359 69.679 198.292Z" fill="white" stroke="white" stroke-miterlimit="10" stroke-linecap="round" stroke-linejoin="round"/>
<path d="M66.4568 199.994C67.4903 199.325 67.7335 198.899 67.7335 197.562Z" fill="white"/>
<path d="M66.4568 199.994C67.4903 199.325 67.7335 198.899 67.7335 197.562" stroke="#D0C8FF" stroke-miterlimit="10" stroke-linecap="round" stroke-linejoin="round"/>
<path d="M56 185.464V188.017V190.571C56.4864 190.571 56.7903 190.267 56.9119 190.084C56.9727 189.963 57.0335 189.841 57.0335 189.719V188.078V186.376C57.0335 186.254 56.9727 186.072 56.9119 185.95C56.7903 185.768 56.4864 185.464 56 185.464Z" fill="white" stroke="white" stroke-miterlimit="10" stroke-linecap="round" stroke-linejoin="round"/>
<path d="M57.0945 186.923H60.2558C60.2558 186.923 60.8638 186.254 61.7149 186.254C62.566 186.254 62.87 186.619 63.2348 186.923H65.4234C65.4234 186.923 66.8825 187.105 67.1257 188.382V190.267H64.9371V189.659C64.9371 189.659 64.8763 189.233 64.6331 189.172C64.3291 189.172 63.3564 189.172 63.3564 189.172C63.3564 189.172 62.6876 189.902 61.8973 189.902C61.107 189.902 60.499 189.415 60.3774 189.172H57.0945V186.923Z" fill="white" stroke="white" stroke-miterlimit="10" stroke-linecap="round" stroke-linejoin="round"/>
<path d="M63.7818 183.822C63.5386 183.822 63.3562 183.883 63.2346 184.065H61.7148H60.4381C60.3165 183.883 60.1341 183.822 59.8909 183.822C59.5261 183.822 59.2222 184.126 59.2222 184.491C59.2222 184.856 59.5261 185.16 59.8909 185.16C60.1341 185.16 60.3165 185.038 60.4381 184.856H61.35V186.132H61.7148H62.3227V184.917H63.2346C63.3562 185.099 63.5386 185.221 63.7818 185.221C64.1466 185.221 64.4505 184.917 64.4505 184.552C64.5113 184.126 64.2074 183.822 63.7818 183.822Z" fill="white" stroke="white" stroke-miterlimit="10" stroke-linecap="round" stroke-linejoin="round"/>
<path d="M72.4699 37.2482C72.4699 36.4699 72.2304 35.7515 71.8114 35.1528L70.5542 33.3568L69.1174 31.1418C69.0575 31.0819 68.9976 31.0221 68.8779 31.0221C68.818 31.0221 68.6983 31.0819 68.6384 31.1418L67.1418 33.3568L65.8846 35.1528C65.4655 35.7515 65.2261 36.4699 65.2261 37.2482C65.2261 39.2836 66.8425 40.9 68.818 40.9C70.8535 40.9 72.4699 39.2836 72.4699 37.2482Z" fill="white" stroke="white" stroke-miterlimit="10" stroke-linecap="round" stroke-linejoin="round"/>
<path d="M69.2971 38.9244C70.3148 38.2659 70.5543 37.8468 70.5543 36.5298Z" fill="white"/>
<path d="M69.2971 38.9244C70.3148 38.2659 70.5543 37.8468 70.5543 36.5298" stroke="#07A08A" stroke-miterlimit="10" stroke-linecap="round" stroke-linejoin="round"/>
<path d="M59 24.6164V27.1308V29.6452C59.4789 29.6452 59.7783 29.3458 59.898 29.1662C59.9579 29.0465 60.0177 28.9268 60.0177 28.807V27.1906V25.5144C60.0177 25.3947 59.9579 25.2151 59.898 25.0953C59.7783 24.9157 59.4789 24.6164 59 24.6164Z" fill="white" stroke="white" stroke-miterlimit="10" stroke-linecap="round" stroke-linejoin="round"/>
<path d="M60.0776 26.0532H63.1907C63.1907 26.0532 63.7893 25.3947 64.6275 25.3947C65.4656 25.3947 65.7649 25.7539 66.1241 26.0532H68.2793C68.2793 26.0532 69.7161 26.2328 69.9556 27.49V29.3458H67.8004V28.7472C67.8004 28.7472 67.7405 28.3281 67.501 28.2682C67.2017 28.2682 66.2439 28.2682 66.2439 28.2682C66.2439 28.2682 65.5853 28.9866 64.8071 28.9866C64.0288 28.9866 63.4301 28.5077 63.3104 28.2682H60.0776V26.0532Z" fill="white" stroke="white" stroke-miterlimit="10" stroke-linecap="round" stroke-linejoin="round"/>
<path d="M66.6631 23C66.4236 23 66.244 23.0599 66.1243 23.2395H64.6276H63.3704C63.2507 23.0599 63.0711 23 62.8316 23C62.4724 23 62.1731 23.2993 62.1731 23.6585C62.1731 24.0177 62.4724 24.3171 62.8316 24.3171C63.0711 24.3171 63.2507 24.1973 63.3704 24.0177H64.2684V25.2749H64.6276H65.2263V24.0776H66.1243C66.244 24.2572 66.4236 24.3769 66.6631 24.3769C67.0223 24.3769 67.3216 24.0776 67.3216 23.7184C67.3815 23.2993 67.0821 23 66.6631 23Z" fill="white" stroke="white" stroke-miterlimit="10" stroke-linecap="round" stroke-linejoin="round"/>
</svg>
