<svg width="27" height="28" viewBox="0 0 27 28" fill="none" xmlns="http://www.w3.org/2000/svg">
<g clip-path="url(#clip0_14:403)">
<path d="M8.29998 10.7992C8.49998 13.4992 10.7 16.2992 13.3 16.2992C15.9 16.2992 18.1 13.5992 18.3 10.7992C19.4 10.7992 19.7 9.29922 18.7 8.79922C18.9 8.19922 19 7.49922 19 6.79922C19 3.39922 16.4 0.699219 13.3 0.699219C10.1 0.699219 7.59998 3.39922 7.59998 6.79922C7.59998 7.49922 7.69998 8.09922 7.89998 8.79922C6.99998 9.19922 7.29998 10.7992 8.29998 10.7992ZM26 23.5992C23.7 21.2992 17 18.8992 16.9 18.8992C15 19.8992 11.9 19.8992 9.89997 18.8992C9.79997 18.8992 3.19998 21.1992 0.799976 23.5992C0.699976 23.6992 0.599976 23.7992 0.599976 23.9992V25.8992C0.599976 26.1992 0.799976 26.3992 1.09998 26.3992H25.5C25.8 26.3992 26 26.1992 26 25.8992V23.9992C26.2 23.7992 26.1 23.6992 26 23.5992Z" stroke="#5A52FF" stroke-width="1.4705" stroke-linecap="round" stroke-linejoin="round"/>
</g>
<defs>
<clipPath id="clip0_14:403">
<rect width="26.9" height="27.1" fill="white"/>
</clipPath>
</defs>
</svg>
