<svg width="37" height="47" viewBox="0 0 37 47" fill="none" xmlns="http://www.w3.org/2000/svg">
<path fill-rule="evenodd" clip-rule="evenodd" d="M20.7887 39.104H16.2113L15.2577 32.524C15.2577 31.02 16.5928 29.704 18.5 29.704C20.4072 29.704 21.7423 31.02 21.7423 32.524L20.7887 39.104ZM10.8711 9.776C10.8711 6.204 14.4948 3.196 18.5 3.196C22.5052 3.196 26.1289 6.204 26.1289 9.776V18.8H10.8711V9.776ZM29.5619 18.8V9.776C29.5619 4.512 24.6031 0 18.5 0C12.3969 0 7.43814 4.512 7.43814 9.776V18.8H4.57732C2.09794 18.8 0 20.68 0 22.936L2.09794 42.676C2.09794 45.12 4.19588 47 6.67526 47H30.3247C32.8041 47 34.9021 45.12 34.9021 42.676L37 22.936C37 20.492 34.9021 18.8 32.4227 18.8H29.5619Z" fill="#6249FF"/>
</svg>
