<svg width="28" height="33" viewBox="0 0 28 33" fill="none" xmlns="http://www.w3.org/2000/svg">
<g clip-path="url(#clip0_14:297)">
<path d="M25.7001 4.50078H23V1.80078C23 1.00078 22.3 0.300781 21.5 0.300781H1.80005C1.00005 0.300781 0.300049 1.00078 0.300049 1.80078V26.4008C0.300049 27.2008 1.00005 27.9008 1.80005 27.9008H4.50005V30.6008C4.50005 31.4008 5.20005 32.1008 6.00005 32.1008H19.1C19.9 32.1008 21.1 31.6008 21.8 31.0008L26.1 26.9008C26.7001 26.3008 27.2001 25.2008 27.2001 24.3008V5.80078C27.2001 5.20078 26.5 4.50078 25.7001 4.50078ZM1.80005 26.8008C1.60005 26.8008 1.40005 26.6008 1.40005 26.4008V1.80078C1.40005 1.60078 1.60005 1.40078 1.80005 1.40078H21.4C21.6 1.40078 21.8 1.60078 21.8 1.80078V4.50078H6.00005C5.20005 4.50078 4.50005 5.20078 4.50005 6.00078V26.8008H1.80005ZM6.00005 31.1008C5.80005 31.1008 5.60005 30.9008 5.60005 30.7008V6.00078C5.60005 5.80078 5.80005 5.60078 6.00005 5.60078H25.6C25.8001 5.60078 26 5.80078 26 6.00078V24.5008C26 24.6008 26 24.7008 25.9 24.9008H21.5C20.3 24.9008 19.4 25.8008 19.4 27.0008V31.0008C19.3 31.0008 19.1 31.0008 19 31.0008L6.00005 31.1008ZM21 30.3008C20.9 30.4008 20.8001 30.5008 20.7001 30.5008V27.0008C20.7001 26.7008 20.8 26.5008 21 26.3008C21.2001 26.1008 21.4001 26.0008 21.7001 26.0008H25.6C25.5 26.1008 25.5 26.2008 25.4 26.2008L21 30.3008Z" fill="#5A52FF" stroke="#5A52FF" stroke-width="0.5" stroke-miterlimit="10"/>
<path d="M10.3 11.0008H21.5C21.8 11.0008 22.1 10.7008 22.1 10.4008C22.1 10.1008 21.8 9.80078 21.5 9.80078H10.3C9.99995 9.80078 9.69995 10.1008 9.69995 10.4008C9.69995 10.8008 9.89995 11.0008 10.3 11.0008Z" fill="#5A52FF" stroke="#5A52FF" stroke-width="0.5" stroke-miterlimit="10"/>
<path d="M10.3 18.7H21.5C21.8 18.7 22.1 18.4 22.1 18.1C22.1 17.8 21.8 17.5 21.5 17.5H10.3C9.99995 17.5 9.69995 17.8 9.69995 18.1C9.69995 18.5 9.89995 18.7 10.3 18.7Z" fill="#5A52FF" stroke="#5A52FF" stroke-width="0.5" stroke-miterlimit="10"/>
<path d="M16.4 21.4004H10.2C9.89998 21.4004 9.59998 21.7004 9.59998 22.0004C9.59998 22.3004 9.89998 22.6004 10.2 22.6004H16.4C16.7 22.6004 17 22.3004 17 22.0004C17 21.7004 16.7 21.4004 16.4 21.4004Z" fill="#5A52FF" stroke="#5A52FF" stroke-width="0.5" stroke-miterlimit="10"/>
<path d="M10.3 14.8992H21.5C21.8 14.8992 22.1 14.5992 22.1 14.2992C22.1 13.9992 21.8 13.6992 21.5 13.6992H10.3C9.99995 13.6992 9.69995 13.9992 9.69995 14.2992C9.69995 14.5992 9.89995 14.8992 10.3 14.8992Z" fill="#5A52FF" stroke="#5A52FF" stroke-width="0.5" stroke-miterlimit="10"/>
</g>
<defs>
<clipPath id="clip0_14:297">
<rect width="27.5" height="32.5" fill="white"/>
</clipPath>
</defs>
</svg>
