<svg width="20" height="20" viewBox="0 0 20 20" fill="none" xmlns="http://www.w3.org/2000/svg">
<g clip-path="url(#clip0_14:787)">
<path fill-rule="evenodd" clip-rule="evenodd" d="M2.29999 0.400391L19.5 17.6004C20 18.1004 20 19.0004 19.5 19.5004C19 20.0004 18.1 20.0004 17.6 19.5004L0.399994 2.30039C-0.100006 1.80039 -0.100006 0.900391 0.399994 0.400391C0.899994 -0.0996094 1.79999 -0.0996094 2.29999 0.400391Z" fill="#5A52FF"/>
<path fill-rule="evenodd" clip-rule="evenodd" d="M19.5 2.30039L2.29999 19.5004C1.79999 20.0004 0.899994 20.0004 0.399994 19.5004C-0.100006 19.0004 -0.100006 18.1004 0.399994 17.6004L17.6 0.400391C18.1 -0.0996094 19 -0.0996094 19.5 0.400391C20.1 0.900391 20.1 1.80039 19.5 2.30039Z" fill="#5A52FF"/>
</g>
<defs>
<clipPath id="clip0_14:787">
<rect width="19.9" height="19.9" fill="white"/>
</clipPath>
</defs>
</svg>
