<svg width="30" height="29" viewBox="0 0 30 29" fill="none" xmlns="http://www.w3.org/2000/svg">
<path fill-rule="evenodd" clip-rule="evenodd" d="M2.78741 13.6064L27.1119 13.6064C27.819 13.6064 28.4554 14.2428 28.4554 14.95C28.4554 15.6571 27.819 16.2935 27.1119 16.2935L2.78741 16.2935C2.0803 16.2935 1.4439 15.6571 1.4439 14.95C1.4439 14.2428 2.0803 13.6064 2.78741 13.6064Z" fill="#5A52FF"/>
<path fill-rule="evenodd" clip-rule="evenodd" d="M16.2931 2.78771V27.1122C16.2931 27.8193 15.6568 28.4557 14.9496 28.4557C14.2425 28.4557 13.6061 27.8193 13.6061 27.1122V2.78771C13.6061 2.08061 14.2425 1.44421 14.9496 1.44421C15.7275 1.3735 16.3639 2.0099 16.2931 2.78771Z" fill="#5A52FF"/>
</svg>
