<svg width="26" height="26" viewBox="0 0 26 26" fill="none" xmlns="http://www.w3.org/2000/svg">
<path d="M7.6 10.0004C7.8 12.7004 10 15.5004 12.6 15.5004C15.2 15.5004 17.4 12.8004 17.6 10.0004C18.7 10.0004 19 8.50039 18 8.00039C18.2 7.40039 18.3 6.70039 18.3 6.00039C18.3 2.60039 15.7 -0.0996094 12.6 -0.0996094C9.5 0.000390626 6.9 2.70039 6.9 6.10039C6.9 6.80039 7 7.40039 7.2 8.10039C6.2 8.50039 6.5 10.0004 7.6 10.0004ZM25.3 22.8004C23 20.5004 16.3 18.1004 16.2 18.1004C14.3 19.1004 11.2 19.1004 9.2 18.1004C9.1 18.1004 2.5 20.4004 0.1 22.8004C0.1 22.9004 0 23.1004 0 23.2004V25.1004C0 25.4004 0.2 25.6004 0.5 25.6004H24.9C25.2 25.6004 25.4 25.4004 25.4 25.1004V23.2004C25.5 23.1004 25.4 22.9004 25.3 22.8004Z" fill="#5A52FF"/>
</svg>
