<svg width="41" height="34" viewBox="0 0 41 34" fill="none" xmlns="http://www.w3.org/2000/svg">
<path d="M12.8052 29.6526C12.8052 31.5477 11.3449 33.1084 9.43532 33.1084C7.52573 33.1084 5.95312 31.6592 5.95312 29.7641V29.6526C5.95312 27.7575 7.52573 26.3083 9.43532 26.3083C11.3449 26.4198 12.8052 27.869 12.8052 29.6526ZM36.7312 29.6526C36.7312 31.5477 35.1586 32.9969 33.3613 32.9969C31.4518 32.9969 29.9915 31.4362 29.9915 29.6526C29.9915 27.7575 31.5641 26.3083 33.3613 26.3083C35.1586 26.3083 36.7312 27.7575 36.7312 29.6526Z" stroke="#5A52FF" stroke-width="1.5" stroke-linecap="round" stroke-linejoin="round"/>
<path d="M36.7313 29.6526H38.4162C39.3149 29.6526 40.1012 28.8722 40.1012 27.9804V19.5083L36.619 9.9214C36.1697 8.5837 34.8217 7.69189 33.3615 7.69189H26.3971V22.964H0.898438V28.0919C0.898438 28.9837 1.68474 29.764 2.58337 29.764H5.95323M12.8053 29.6526H29.8793" stroke="#5A52FF" stroke-width="1.5" stroke-linecap="round" stroke-linejoin="round"/>
<path d="M0.898438 22.8525V4.23611C0.898438 2.34103 2.47104 0.891846 4.2683 0.891846H23.0272C24.9368 0.891846 26.3971 2.4525 26.3971 4.23611V7.58037M29.8793 11.0361V17.8361H35.8327" stroke="#5A52FF" stroke-width="1.5" stroke-linecap="round" stroke-linejoin="round"/>
</svg>
