<svg width="60" height="52" viewBox="0 0 60 52" fill="none" xmlns="http://www.w3.org/2000/svg">
<line y1="49.5" x2="60" y2="49.5" stroke="#5A52FF" stroke-width="5"/>
<path d="M53.9725 18.335L37.3394 1.69983C36.7524 1.1127 36.1653 0.916992 35.3826 0.916992H34.4042C33.8171 1.1127 33.4258 1.30841 32.8387 1.69983L4.85599 29.8818C4.6603 30.2732 4.26893 30.8604 4.07324 31.2518V31.8389C4.07324 32.6217 4.46462 33.7959 4.85599 34.3831L21.4891 51.0183C22.6632 52.1926 24.62 52.1926 25.9898 51.0183L53.9725 23.032C55.3423 21.6621 55.3423 19.5093 53.9725 18.335ZM32.643 6.00543L28.338 25.1848L9.16101 29.4904L32.643 6.00543ZM52.0157 20.8792L24.033 48.8655H23.6416L7.39987 32.8174L29.9034 27.729C30.4905 27.5333 30.8819 27.1419 30.8819 26.7505L35.774 4.43976L51.82 20.4878C52.2114 20.6835 52.2114 20.8792 52.0157 20.8792Z" fill="#5A52FF"/>
</svg>
