<svg width="36" height="32" viewBox="0 0 36 32" fill="none" xmlns="http://www.w3.org/2000/svg">
<g clip-path="url(#clip0_14:335)">
<path d="M32.3 27.9004C34.7 25.8004 36.1 22.8004 36.1 19.6004C36.1 13.4004 31.1 8.40039 24.9 8.40039C18.7 8.40039 13.7 13.4004 13.7 19.6004C13.7 25.8004 18.7 30.8004 24.9 30.8004C26 30.8004 27 30.6004 28.1 30.3004L33 31.8004C33.1 31.8004 33.1 31.8004 33.2 31.8004C33.4 31.8004 33.6 31.7004 33.7 31.6004C33.9 31.4004 33.9 31.1004 33.8 30.9004L32.3 27.9004ZM28.3 28.9004C28.2 28.8004 28 28.8004 27.8 28.9004C26.8 29.2004 25.8 29.4004 24.8 29.4004C19.4 29.4004 15 25.0004 15 19.6004C15 14.2004 19.4 9.80039 24.8 9.80039C30.2 9.80039 34.6 14.2004 34.6 19.6004C34.6 22.6004 33.3 25.4004 30.9 27.3004C30.7 27.5004 30.6 27.7004 30.7 27.9004C30.7 28.0004 30.7 28.1004 30.8 28.1004L31.8 30.0004L28.3 28.9004Z" fill="#5A52FF"/>
<path d="M11.3 21H11.2C10.2 21 9.2 20.8 8.3 20.5C8.1 20.5 8 20.5 7.8 20.5L3.8 22.2L5.2 19.6C5.2 19.5 5.3 19.5 5.3 19.4C5.4 19.2 5.3 18.9 5.1 18.7C2.8 16.8 1.5 14 1.5 11.1C1.5 5.7 5.9 1.3 11.3 1.3C15 1.3 18.5 3.5 20.2 6.9C20.4 7.2 20.8 7.4 21.1 7.2C21.4 7 21.6 6.6 21.4 6.3C19.4 2.5 15.4 0 11.2 0C5 0 0 5 0 11.2C0 14.4 1.3 17.4 3.7 19.5L1.6 23.4C1.5 23.7 1.5 24 1.7 24.2C1.8 24.3 2 24.4 2.2 24.4C2.3 24.4 2.4 24.4 2.5 24.3L8 21.9C9 22.2 10.1 22.3 11.1 22.3H11.2C11.6 22.3 11.9 22 11.9 21.6C12 21.3 11.7 21 11.3 21Z" fill="#5A52FF"/>
<path d="M27.7 16.4C27.5 16 27.3 15.7 27 15.4C26.7 15.1 26.4 14.9 26 14.7C25.6 14.5 25.2 14.5 24.8 14.5C24.4 14.5 24 14.6 23.6 14.7C23.2 14.9 22.9 15.1 22.6 15.4C22 16 21.7 16.8 21.7 17.6C21.7 17.6 21.7 17.7 21.8 17.7H23.2C23.2 17.7 23.3 17.7 23.3 17.6C23.3 16.7 24 16 24.9 16C25.8 16 26.5 16.7 26.5 17.6C26.5 18.2 26.2 18.7 25.7 19C24.8 19.5 24.2 20.5 24.2 21.6V22.1C24.2 22.1 24.2 22.2 24.3 22.2H25.7C25.7 22.2 25.8 22.2 25.8 22.1V21.6C25.8 21.1 26.1 20.6 26.6 20.3C27.1 20 27.5 19.5 27.8 19C28 18.6 28.1 18.1 28.1 17.6C28 17.2 27.9 16.8 27.7 16.4Z" fill="#5A52FF"/>
<path d="M24.9 23.3008C24.3 23.3008 23.8 23.8008 23.8 24.4008C23.8 25.0008 24.3 25.5008 24.9 25.5008C25.5 25.5008 26 25.0008 26 24.4008C26 23.9008 25.5 23.3008 24.9 23.3008Z" fill="#5A52FF"/>
</g>
<defs>
<clipPath id="clip0_14:335">
<rect width="36" height="31.8" fill="white"/>
</clipPath>
</defs>
</svg>
