<svg width="50" height="42" viewBox="0 0 50 42" fill="none" xmlns="http://www.w3.org/2000/svg">
<path d="M45.7353 15.4346L40 1.92933C39.5588 0.742049 38.3824 0 37.0588 0H12.7941C11.6176 0 10.4412 0.742049 9.85294 1.92933L4.11765 15.4346C1.76471 16.4735 0 19.1449 0 22.1131V30.5724C0 32.3534 1.47059 33.689 3.08824 33.689H4.11765V38.8834C4.11765 40.6643 5.58824 42 7.20588 42H11.3235C13.0882 42 14.4118 40.5159 14.4118 38.8834V33.689H35.2941V38.8834C35.2941 40.6643 36.7647 42 38.3824 42H42.6471C44.4118 42 45.7353 40.5159 45.7353 38.8834V33.689H46.7647C48.5294 33.689 49.8529 32.2049 49.8529 30.5724V22.1131C50 19.1449 48.2353 16.4735 45.7353 15.4346ZM11.9118 2.67138C12.0588 2.22615 12.5 2.07774 12.9412 2.07774H37.2059C37.6471 2.07774 37.9412 2.37456 38.2353 2.67138L43.3824 14.6926C43.2353 14.6926 43.0882 14.6926 42.9412 14.6926H7.35294C7.20588 14.6926 7.05882 14.6926 6.91176 14.6926L11.9118 2.67138ZM12.5 38.8834C12.5 39.477 12.0588 39.9223 11.4706 39.9223H7.35294C6.76471 39.9223 6.32353 39.477 6.32353 38.8834V33.689H12.5V38.8834ZM43.6765 38.8834C43.6765 39.477 43.2353 39.9223 42.6471 39.9223H38.5294C37.9412 39.9223 37.5 39.477 37.5 38.8834V33.689H43.6765V38.8834ZM47.9412 30.424C47.9412 31.0177 47.5 31.4629 46.9118 31.4629H44.8529H36.4706H13.5294H5.14706H3.08824C2.5 31.4629 2.05882 31.0177 2.05882 30.424V21.9647C2.05882 18.9965 4.41177 16.7703 7.20588 16.7703H42.6471C45.5882 16.7703 47.7941 19.1449 47.7941 21.9647L47.9412 30.424Z" fill="#5A52FF"/>
<path d="M9.41171 18.8481C6.47053 18.8481 4.26465 21.2226 4.26465 24.0424C4.26465 26.8622 6.61759 29.2367 9.41171 29.2367C12.2058 29.2367 14.5588 26.8622 14.5588 24.0424C14.5588 21.2226 12.2058 18.8481 9.41171 18.8481ZM9.41171 27.3074C7.647 27.3074 6.32347 25.8233 6.32347 24.1908C6.32347 22.5583 7.79406 21.0742 9.41171 21.0742C11.0294 21.0742 12.4999 22.5583 12.4999 24.1908C12.4999 25.8233 11.0294 27.3074 9.41171 27.3074Z" fill="#5A52FF"/>
<path d="M40.5885 18.8481C37.6473 18.8481 35.4414 21.2226 35.4414 24.0424C35.4414 26.8622 37.7943 29.2367 40.5885 29.2367C43.3826 29.2367 45.7355 26.8622 45.7355 24.0424C45.7355 21.2226 43.5296 18.8481 40.5885 18.8481ZM40.5885 27.3074C38.8238 27.3074 37.5002 25.8233 37.5002 24.1908C37.5002 22.5583 38.9708 21.0742 40.5885 21.0742C42.2061 21.0742 43.6767 22.5583 43.6767 24.1908C43.6767 25.8233 42.3532 27.3074 40.5885 27.3074Z" fill="#5A52FF"/>
<path d="M32.2054 25.2297H17.6466C17.0584 25.2297 16.6172 25.6749 16.6172 26.2686C16.6172 26.8622 17.0584 27.3074 17.6466 27.3074H32.2054C32.7937 27.3074 33.2348 26.8622 33.2348 26.2686C33.2348 25.6749 32.7937 25.2297 32.2054 25.2297Z" fill="#5A52FF"/>
<path d="M32.2054 21.0742H17.6466C17.0584 21.0742 16.6172 21.5194 16.6172 22.1131C16.6172 22.7067 17.0584 23.1519 17.6466 23.1519H32.2054C32.7937 23.1519 33.2348 22.7067 33.2348 22.1131C33.3819 21.5194 32.7937 21.0742 32.2054 21.0742Z" fill="#5A52FF"/>
</svg>
