<svg width="16" height="15" viewBox="0 0 16 15" fill="none" xmlns="http://www.w3.org/2000/svg">
<g clip-path="url(#clip0_161:160)">
<path fill-rule="evenodd" clip-rule="evenodd" d="M1.75145 0.301508L14.7163 13.2663C15.0932 13.6432 15.0932 14.3216 14.7163 14.6985C14.3394 15.0754 13.661 15.0754 13.2841 14.6985L0.319284 1.73367C-0.0576 1.35678 -0.0576 0.678392 0.319284 0.301508C0.696169 -0.0753765 1.37456 -0.0753765 1.75145 0.301508Z" fill="#5A52FF"/>
<path fill-rule="evenodd" clip-rule="evenodd" d="M14.7163 1.73367L1.75144 14.6985C1.37456 15.0754 0.696169 15.0754 0.319284 14.6985C-0.0576 14.3216 -0.0576 13.6432 0.319284 13.2663L13.2841 0.301508C13.661 -0.0753765 14.3394 -0.0753765 14.7163 0.301508C15.1685 0.678392 15.1685 1.35678 14.7163 1.73367Z" fill="#5A52FF"/>
</g>
<defs>
<clipPath id="clip0_161:160">
<rect width="15" height="15" fill="white" transform="translate(0.0175781)"/>
</clipPath>
</defs>
</svg>
