<svg width="37" height="55" viewBox="0 0 37 55" fill="none" xmlns="http://www.w3.org/2000/svg">
<path d="M36.3529 17.7294L30.2706 11.7765C29.8824 11.2588 29.3647 11 28.7176 11H6.32941C5.03529 11 4 12.0353 4 13.3294V52.6706C4 53.9647 5.03529 55 6.32941 55H34.6706C35.9647 55 37 53.9647 37 52.6706V19.2824C37 18.6353 36.7412 18.1176 36.3529 17.7294ZM34.4118 18.3765H29.7529V13.7176L34.4118 18.3765ZM34.6706 53.1882H6.32941C6.07059 53.1882 5.81176 52.9294 5.81176 52.6706V13.4588C5.81176 13.2 6.07059 12.9412 6.32941 12.9412H27.8118V19.4118C27.8118 19.9294 28.2 20.3176 28.7176 20.3176H35.1882V52.8C35.1882 52.9294 34.9294 53.1882 34.6706 53.1882Z" fill="#5A52FF"/>
<path d="M29.7531 42.1882H11.3766C10.8589 42.1882 10.4707 42.5765 10.4707 43.0941C10.4707 43.6118 10.8589 44 11.3766 44H29.7531C30.2707 44 30.6589 43.6118 30.6589 43.0941C30.6589 42.5765 30.1413 42.1882 29.7531 42.1882ZM29.7531 36.7529H11.3766C10.8589 36.7529 10.4707 37.1412 10.4707 37.6588C10.4707 38.1765 10.8589 38.5647 11.3766 38.5647H29.7531C30.2707 38.5647 30.6589 38.1765 30.6589 37.6588C30.6589 37.1412 30.1413 36.7529 29.7531 36.7529ZM29.7531 31.1882H11.3766C10.8589 31.1882 10.4707 31.5765 10.4707 32.0941C10.4707 32.6118 10.8589 33 11.3766 33H29.7531C30.2707 33 30.6589 32.6118 30.6589 32.0941C30.6589 31.5765 30.1413 31.1882 29.7531 31.1882ZM11.3766 27.5647H21.6001C22.1178 27.5647 22.506 27.1765 22.506 26.6588C22.506 26.1412 22.1178 25.7529 21.6001 25.7529H11.3766C10.8589 25.7529 10.4707 26.1412 10.4707 26.6588C10.4707 27.0471 10.8589 27.5647 11.3766 27.5647Z" fill="#5A52FF"/>
<circle cx="8.5" cy="12.5" r="8.5" fill="white"/>
<g clip-path="url(#clip0_335:349)">
<path d="M6.50039 16.6C6.80039 16.9 7.20039 17 7.70039 17C8.20039 17 8.70039 16.8 9.00039 16.4L20.2004 2.7C20.8004 2 20.6004 0.899997 19.9004 0.399997C19.2004 -0.200003 18.2004 -2.6226e-06 17.6004 0.599997L7.60039 13L3.70039 9.2C3.00039 8.6 2.00039 8.7 1.40039 9.4C0.900391 10 0.900391 11 1.40039 11.6L6.50039 16.6Z" fill="#5A52FF"/>
</g>
<defs>
<clipPath id="clip0_335:349">
<rect width="19.5" height="17" fill="white" transform="translate(1)"/>
</clipPath>
</defs>
</svg>
