<svg width="29" height="30" viewBox="0 0 29 30" fill="none" xmlns="http://www.w3.org/2000/svg">
<g clip-path="url(#clip0_14:253)">
<path d="M13.3 25.8008C20.2036 25.8008 25.8 20.2043 25.8 13.3008C25.8 6.39722 20.2036 0.800781 13.3 0.800781C6.39649 0.800781 0.800049 6.39722 0.800049 13.3008C0.800049 20.2043 6.39649 25.8008 13.3 25.8008Z" stroke="#5A52FF" stroke-width="1.7" stroke-linecap="round" stroke-linejoin="round"/>
<path d="M4.70005 15C4.50005 13.9 4.50005 12.7 4.70005 11.5" stroke="#5A52FF" stroke-width="1.7" stroke-linecap="round" stroke-linejoin="round"/>
<path d="M5.80005 8.69961C6.20005 8.09961 6.60005 7.59961 7.10005 7.09961" stroke="#5A52FF" stroke-width="1.7" stroke-linecap="round" stroke-linejoin="round"/>
<path d="M21 23.3L25.9 28.2C26.4 28.7 27.2 28.7 27.7 28.2C28.2 27.7 28.2 26.9 27.7 26.4L22.8 21.5" stroke="#5A52FF" stroke-width="1.7" stroke-linecap="round" stroke-linejoin="round"/>
</g>
<defs>
<clipPath id="clip0_14:253">
<rect width="29" height="29.4" fill="white"/>
</clipPath>
</defs>
</svg>
