<svg width="29" height="38" viewBox="0 0 29 38" fill="none" xmlns="http://www.w3.org/2000/svg">
<path d="M28.3831 29.8834C28.3831 28.2847 27.8895 26.809 27.0256 25.5792L24.4341 21.8899L21.4724 17.3397C21.349 17.2167 21.2256 17.0938 20.9788 17.0938C20.8554 17.0938 20.6086 17.2167 20.4852 17.3397L17.4001 21.8899L14.8086 25.5792C13.9448 26.809 13.4512 28.2847 13.4512 29.8834C13.4512 34.0646 16.7831 37.385 20.8554 37.385C25.0512 37.385 28.3831 34.0646 28.3831 29.8834Z" stroke="#5A52FF" stroke-miterlimit="10" stroke-linecap="round" stroke-linejoin="round"/>
<path d="M21.8428 33.3268C23.9406 31.9741 24.4343 31.1132 24.4343 28.4077" stroke="#5A52FF" stroke-miterlimit="10" stroke-linecap="round" stroke-linejoin="round"/>
<path d="M0.617188 3.9353V9.10035V14.2654C1.60442 14.2654 2.22144 13.6505 2.46825 13.2816C2.59166 13.0356 2.71506 12.7897 2.71506 12.5437V9.22333V5.77996C2.71506 5.53401 2.59166 5.16508 2.46825 4.91912C2.22144 4.55019 1.60442 3.9353 0.617188 3.9353Z" stroke="#5A52FF" stroke-miterlimit="10" stroke-linecap="round" stroke-linejoin="round"/>
<path d="M2.83789 6.88669H9.25491C9.25491 6.88669 10.489 5.53394 12.2166 5.53394C13.9443 5.53394 14.5613 6.2718 15.3017 6.88669H19.7443C19.7443 6.88669 22.706 7.25562 23.1996 9.83814V13.6504H18.757V12.4207C18.757 12.4207 18.6336 11.5598 18.14 11.4368C17.523 11.4368 15.5485 11.4368 15.5485 11.4368C15.5485 11.4368 14.1911 12.9126 12.5868 12.9126C10.9826 12.9126 9.74853 11.9288 9.50172 11.4368H2.83789V6.88669Z" stroke="#5A52FF" stroke-miterlimit="10" stroke-linecap="round" stroke-linejoin="round"/>
<path d="M16.4125 0.61499C15.9189 0.61499 15.5487 0.737968 15.3019 1.1069H12.2168H9.62531C9.3785 0.737968 9.00829 0.61499 8.51467 0.61499C7.77425 0.61499 7.15723 1.22988 7.15723 1.96774C7.15723 2.70561 7.77425 3.32049 8.51467 3.32049C9.00829 3.32049 9.3785 3.07454 9.62531 2.70561H11.4764V5.28813H12.2168H13.4508V2.82858H15.3019C15.5487 3.19751 15.9189 3.44347 16.4125 3.44347C17.153 3.44347 17.77 2.82858 17.77 2.09072C17.8934 1.22988 17.2764 0.61499 16.4125 0.61499Z" stroke="#5A52FF" stroke-miterlimit="10" stroke-linecap="round" stroke-linejoin="round"/>
</svg>
