<svg width="21" height="37" viewBox="0 0 21 37" fill="none" xmlns="http://www.w3.org/2000/svg">
<path d="M10.4995 30.1873C9.35823 30.1873 8.33105 31.1269 8.33105 32.419C8.33105 33.7111 9.2441 34.6507 10.4995 34.6507C11.6408 34.6507 12.668 33.7111 12.668 32.419C12.668 31.1269 11.6408 30.1873 10.4995 30.1873ZM10.4995 32.7714C10.2713 32.7714 10.043 32.5365 10.043 32.3015C10.043 32.0666 10.2713 31.8317 10.4995 31.8317C10.7278 31.8317 10.9561 32.0666 10.9561 32.3015C10.9561 32.5365 10.7278 32.7714 10.4995 32.7714Z" fill="#5A52FF"/>
<path d="M21 5.52064C21 5.52064 21 5.40317 21 5.52064V3.99365C21 1.7619 19.288 0 17.1196 0H3.88043C1.71196 0 0 1.7619 0 3.99365V33.0064C0 35.2381 1.71196 37 3.88043 37H17.1196C19.288 37 21 35.2381 21 33.0064V28.5429V5.52064ZM19.288 27.6032H1.71196V6.46032H19.288V27.6032ZM3.88043 1.7619H17.1196C18.2609 1.7619 19.288 2.81905 19.288 3.99365V4.58095H1.71196V3.99365C1.71196 2.81905 2.73913 1.7619 3.88043 1.7619ZM17.1196 35.2381H3.88043C2.73913 35.2381 1.71196 34.2984 1.71196 33.0064V29.3651H19.288V33.0064C19.288 34.181 18.375 35.2381 17.1196 35.2381Z" fill="#5A52FF"/>
</svg>
