<svg width="66" height="34" viewBox="0 0 66 34" fill="none" xmlns="http://www.w3.org/2000/svg">
<path d="M25.4126 17.3318H27.7725V14.972H28.5798V17.3318H30.9396V18.1391H28.5798V20.499H27.7725V18.1391H25.4126V17.3318Z" fill="#5A52FF"/>
<path d="M16.6388 13.9593L1.10938 18.1056C1.10938 18.1056 7.07156 17.8292 7.07156 24.4633M15.8069 18.9349C15.8069 18.9349 10.6766 18.6584 10.5379 24.4633M1.10938 12.8536L16.6388 8.56902M1.10938 7.46333L11.0926 4.56089C11.0926 4.56089 13.1724 3.86983 12.4791 1.65845M12.7564 24.6015H4.85307C4.02114 28.7479 5.68501 30.2682 7.07156 30.5446L7.48753 32.8942H9.84467L10.2606 30.5446C11.9245 30.2682 13.5884 28.7479 12.7564 24.6015Z" stroke="#5A52FF" stroke-width="1.5" stroke-linecap="round" stroke-linejoin="round"/>
<path d="M56.5716 32.3415C56.5716 32.3415 58.2355 31.2358 58.2355 29.8537C58.2355 25.5691 54.7691 25.5691 53.9372 20.5935C53.1052 25.7073 49.6388 25.7073 49.6388 29.8537C49.6388 31.2358 51.3027 32.3415 51.3027 32.3415C47.8363 32.3415 42.8447 29.1626 42.8447 23.0813C42.8447 12.9919 53.9372 12.0244 53.9372 1.10571C59.8994 7.87807 65.0296 12.9919 65.0296 21.4228C65.0296 27.5041 59.8993 32.3415 56.5716 32.3415Z" stroke="#5A52FF" stroke-width="1.5" stroke-linejoin="round"/>
</svg>
