<svg width="40" height="36" viewBox="0 0 40 36" fill="none" xmlns="http://www.w3.org/2000/svg">
<g clip-path="url(#clip0_14:350)">
<path d="M37.5 22.3008H8.3V10.6008C8.3 10.1008 7.9 9.80078 7.5 9.80078C7 9.80078 6.7 10.2008 6.7 10.6008V22.3008H2.6C1.2 22.3008 0 23.5008 0 24.9008V33.1008C0 34.5008 1.2 35.6008 2.6 35.6008H37.6C38.9 35.6008 40 34.5008 40 33.2008V24.9008C40 23.5008 38.9 22.3008 37.5 22.3008ZM38.3 33.1008C38.3 33.5008 38 33.9008 37.6 33.9008H2.5C2 33.9008 1.6 33.5008 1.6 33.1008V24.9008C1.6 24.4008 2 24.0008 2.5 24.0008H37.5C38 24.1008 38.3 24.5008 38.3 24.9008V33.1008Z" fill="#5A52FF"/>
<path d="M31.7 26.7014C30.5 26.7014 29.5 27.7014 29.5 28.9014C29.5 30.1014 30.5 31.1014 31.7 31.1014C32.9 31.1014 33.9 30.1014 33.9 28.9014C33.9 27.7014 32.9 26.7014 31.7 26.7014ZM31.7 29.4014C31.4 29.4014 31.2 29.2014 31.2 28.9014C31.2 28.6014 31.4 28.4014 31.7 28.4014C32 28.4014 32.2 28.6014 32.2 28.9014C32.2 29.2014 32 29.4014 31.7 29.4014ZM15.8 17.3014C16.1 17.6014 16.7 17.6014 17 17.3014C20.9 13.7014 21.1 7.60139 17.5 3.80139L17 3.30139C16.6 3.00139 16.1 3.10139 15.8 3.50139C15.6 3.80139 15.6 4.20139 15.8 4.50139C19 7.50139 19.2 12.5014 16.2 15.7014L15.8 16.1014C15.5 16.3014 15.4 16.8014 15.8 17.3014C15.8 17.2014 15.8 17.2014 15.8 17.3014Z" fill="#5A52FF"/>
<path d="M23.2 10.3007C23.2 13.7007 21.8 16.9007 19.4 19.2007C19.1 19.5007 19.1 20.1007 19.5 20.4007C19.8 20.7007 20.3 20.7007 20.6 20.4007C26.2 15.1007 26.4 6.20067 21.1 0.70067C21 0.50067 20.8 0.40067 20.6 0.20067C20.2 -0.0993299 19.7 0.000670075 19.4 0.30067C19.1 0.60067 19.1 1.10067 19.4 1.40067C21.9 3.70067 23.2 6.90067 23.2 10.3007ZM12.1 14.1007C12.4 14.4007 13 14.4007 13.3 14.1007C15.4 12.2007 15.6 8.90067 13.7 6.80067C13.6 6.60067 13.4 6.50067 13.3 6.40067C13 6.10067 12.4 6.10067 12.1 6.40067C11.8 6.70067 11.8 7.30067 12.1 7.60067H12.2C13.7 8.90067 13.8 11.1007 12.6 12.6007C12.5 12.7007 12.4 12.9007 12.2 13.0007C11.9 13.3007 11.8 13.8007 12.1 14.1007Z" fill="#5A52FF"/>
</g>
<defs>
<clipPath id="clip0_14:350">
<rect width="40" height="35.6" fill="white"/>
</clipPath>
</defs>
</svg>
