<svg width="46" height="39" viewBox="0 0 46 39" fill="none" xmlns="http://www.w3.org/2000/svg">
<g clip-path="url(#clip0_269:172)">
<path d="M45.3371 11.887L34.0691 0.534247C33.6714 0.133562 33.2737 0 32.7435 0H32.0806C31.6829 0.133562 31.4178 0.267123 31.0201 0.534247L12.0633 19.7671C11.9308 20.0342 11.6656 20.4349 11.5331 20.7021V21.1027C11.5331 21.637 11.7982 22.4384 12.0633 22.839L23.3313 34.1918C24.1267 34.9931 25.4524 34.9931 26.3803 34.1918L45.3371 15.0925C46.2651 14.1575 46.2651 12.6884 45.3371 11.887ZM30.8875 3.4726L27.9711 16.5616L14.9798 19.5L30.8875 3.4726ZM44.0115 13.6233L25.0547 32.7226H24.7896L13.7867 21.7705L29.0316 18.2979C29.4293 18.1644 29.6945 17.8973 29.6945 17.6301L33.0086 2.40411L43.8789 13.3562C44.144 13.4897 44.144 13.6233 44.0115 13.6233ZM11.1354 25.911C10.7377 25.5103 10.0749 25.5103 9.80974 25.911L0.265068 35.5274C-0.132627 35.9281 -0.132627 36.5959 0.265068 36.863C0.662762 37.1301 1.32559 37.2637 1.59072 36.863L11.1354 27.2466C11.5331 26.8459 11.5331 26.3116 11.1354 25.911ZM15.2449 30.0514C14.8472 29.6507 14.1844 29.6507 13.9192 30.0514L7.55613 36.4623C7.15844 36.863 7.15844 37.5308 7.55613 37.7979C7.95383 38.1986 8.61665 38.1986 8.88178 37.7979L15.2449 31.387C15.6426 30.9863 15.6426 30.3185 15.2449 30.0514ZM17.8962 34.0582L14.5821 37.2637C14.1844 37.6644 14.1844 38.3322 14.5821 38.5993C14.9798 39 15.6426 39 15.9077 38.5993L18.9567 35.3938C19.3544 34.9931 19.3544 34.3253 18.9567 34.0582C18.8241 33.6575 18.0288 33.6575 17.8962 34.0582Z" fill="#5A52FF"/>
</g>
<defs>
<clipPath id="clip0_269:172">
<rect width="46" height="39" fill="white"/>
</clipPath>
</defs>
</svg>
