<svg width="21" height="34" viewBox="0 0 21 34" fill="none" xmlns="http://www.w3.org/2000/svg">
<g clip-path="url(#clip0_14:563)">
<path d="M6.59999 24.7988H13.9C13.9 24.7988 15.1 29.9988 12 30.5988L11.4 32.7988H9.39999L8.79999 30.4988C8.59999 30.4988 5.59999 30.1988 6.59999 24.7988Z" stroke="#5A52FF" stroke-width="1.5" stroke-miterlimit="10" stroke-linecap="round" stroke-linejoin="round"/>
<path d="M12.6001 24.7992H13.8001L14.3001 23.6992" stroke="#5A52FF" stroke-width="1.5" stroke-linecap="round" stroke-linejoin="round"/>
<path d="M15.4001 21.5991L18.7001 14.6991C18.7001 14.6991 20.6001 11.6991 19.3001 7.29914C17.9001 2.89914 12.9001 0.599135 10.2001 0.799135C7.40012 0.899135 3.50012 2.29914 1.50012 6.39914C-0.49988 10.4991 2.00012 15.1991 2.00012 15.1991L5.60012 22.6991" stroke="#5A52FF" stroke-width="1.5" stroke-linecap="round" stroke-linejoin="round" stroke-dasharray="2.36 2.36"/>
<path d="M6 23.6992L6.6 24.7992H7.7" stroke="#5A52FF" stroke-width="1.5" stroke-linecap="round" stroke-linejoin="round"/>
<path d="M9.3999 24.7988H11.7999" stroke="#5A52FF" stroke-width="1.5" stroke-linecap="round" stroke-linejoin="round" stroke-dasharray="1.64 1.64"/>
<path d="M9.3999 15.9988V15.5988C9.2999 14.6988 9.5999 13.6988 10.3999 12.6988C11.0999 11.7988 11.5999 11.1988 11.5999 10.3988C11.4999 9.59883 10.9999 8.99883 9.8999 8.99883C9.2999 8.99883 8.6999 9.19883 8.2999 9.49883L7.8999 8.49883C8.3999 8.09883 9.3999 7.79883 10.2999 7.79883C12.1999 7.79883 13.0999 8.99883 13.0999 10.1988C13.0999 11.2988 12.4999 12.0988 11.6999 13.0988C10.9999 13.9988 10.6999 14.6988 10.7999 15.4988V15.8988H9.3999V15.9988ZM8.9999 18.2988C8.9999 17.6988 9.3999 17.2988 9.9999 17.2988C10.5999 17.2988 10.9999 17.6988 10.9999 18.2988C10.9999 18.8988 10.5999 19.2988 9.9999 19.2988C9.3999 19.3988 8.9999 18.8988 8.9999 18.2988Z" fill="#5A52FF"/>
</g>
<defs>
<clipPath id="clip0_14:563">
<rect width="20.5" height="33.6" fill="white"/>
</clipPath>
</defs>
</svg>
