<svg width="37" height="31" viewBox="0 0 37 31" fill="none" xmlns="http://www.w3.org/2000/svg">
<g clip-path="url(#clip0_14:441)">
<path d="M11.4 26.6016C11.4 28.3016 10.1 29.7016 8.40005 29.7016C6.70005 29.7016 5.30005 28.4016 5.30005 26.7016V26.6016C5.30005 24.9016 6.70005 23.6016 8.40005 23.6016C10.1 23.7016 11.4 25.0016 11.4 26.6016ZM32.7001 26.6016C32.7001 28.3016 31.3001 29.6016 29.7001 29.6016C28.0001 29.6016 26.7001 28.2016 26.7001 26.6016C26.7001 24.9016 28.1001 23.6016 29.7001 23.6016C31.3001 23.6016 32.7001 24.9016 32.7001 26.6016Z" stroke="#5A52FF" stroke-width="1.5" stroke-linecap="round" stroke-linejoin="round"/>
<path d="M32.7001 26.6004H34.2001C35.0001 26.6004 35.7001 25.9004 35.7001 25.1004V17.5004L32.6 8.90039C32.2 7.70039 31.0001 6.90039 29.7001 6.90039H23.5V20.6004H0.800049V25.2004C0.800049 26.0004 1.50005 26.7004 2.30005 26.7004H5.30005M11.4 26.6004H26.6" stroke="#5A52FF" stroke-width="1.5" stroke-linecap="round" stroke-linejoin="round"/>
<path d="M0.800049 20.5008V3.80078C0.800049 2.10078 2.20005 0.800781 3.80005 0.800781H20.5C22.2 0.800781 23.5 2.20078 23.5 3.80078V6.80078M26.6 9.90078V16.0008H31.9" stroke="#5A52FF" stroke-width="1.5" stroke-linecap="round" stroke-linejoin="round"/>
</g>
<defs>
<clipPath id="clip0_14:441">
<rect width="36.5" height="30.5" fill="white"/>
</clipPath>
</defs>
</svg>
