<svg width="34" height="33" viewBox="0 0 34 33" fill="none" xmlns="http://www.w3.org/2000/svg">
<g clip-path="url(#clip0_14:245)">
<path d="M13.1 8.59961C10.7 9.89961 9 12.2996 8.5 14.9996" stroke="#5A52FF" stroke-width="1.7" stroke-linecap="round" stroke-linejoin="round"/>
<path d="M9.09995 6.50097C11.4 4.60097 14.4 3.50097 17.6 3.50097C18.8 3.50097 20 3.70097 21.2 4.00097L23.5 1.60097C24.8 0.100973 27.1 1.10097 27 3.00097V7.40097C28.7 9.10097 30 11.201 30.6 13.601H31.5C32.4 13.601 33 14.301 33 15.101V19.901C33 20.801 32.3 21.401 31.5 21.401H30.2C29.6 23.101 28.5999 24.701 27.2999 26.001L28.2999 28.801C28.6999 29.901 28.1 31.201 26.9 31.501C25.9 31.801 24.8 31.101 24.4 30.101L24 28.701C22.1 29.701 19.9 30.301 17.6 30.301C15.1 30.301 12.8 29.601 10.9 28.501L10.3 30.201C9.89995 31.401 8.49995 31.901 7.39995 31.301C6.49995 30.801 6.19995 29.701 6.49995 28.701L7.59995 25.701C5.49995 23.301 4.19995 20.201 4.19995 16.801C4.19995 14.901 4.59995 13.101 5.29995 11.401" stroke="#5A52FF" stroke-width="1.7" stroke-linecap="round" stroke-linejoin="round"/>
<path d="M4.7999 11.3C6.95381 11.3 8.6999 9.55391 8.6999 7.4C8.6999 5.24609 6.95381 3.5 4.7999 3.5C2.64599 3.5 0.899902 5.24609 0.899902 7.4C0.899902 9.55391 2.64599 11.3 4.7999 11.3Z" stroke="#5A52FF" stroke-width="1.7" stroke-linecap="round" stroke-linejoin="round"/>
<path d="M4.7999 21L2.3999 21.8" stroke="#5A52FF" stroke-width="1.7" stroke-linecap="round" stroke-linejoin="round"/>
</g>
<defs>
<clipPath id="clip0_14:245">
<rect width="33.9" height="32.5" fill="white"/>
</clipPath>
</defs>
</svg>
