<svg width="47" height="36" viewBox="0 0 47 36" fill="none" xmlns="http://www.w3.org/2000/svg">
<path d="M24.6624 15.078C28.5356 15.078 31.6754 11.9382 31.6754 8.06499C31.6754 4.19182 28.5356 1.052 24.6624 1.052C20.7892 1.052 17.6494 4.19182 17.6494 8.06499C17.6494 11.9382 20.7892 15.078 24.6624 15.078Z" stroke="#5A52FF" stroke-width="1.7" stroke-linecap="round" stroke-linejoin="round"/>
<path d="M33.8961 33.5454C27.2338 36.2338 12.3896 35.1818 12.3896 30.2727C12.3896 23.961 17.8832 18.9351 24.6624 18.9351C27.2338 18.9351 29.6884 19.6364 31.6754 20.9221" stroke="#5A52FF" stroke-width="1.7" stroke-linecap="round" stroke-linejoin="round"/>
<path d="M15.7793 13.0909C14.6104 14.1428 12.9741 14.7272 11.3377 14.7272C7.94811 14.4935 5.49357 11.6883 5.61045 8.29866C5.72733 4.90905 8.64941 2.4545 12.039 2.57139C13.3247 2.68827 14.4936 3.1558 15.3117 3.8571" stroke="#5A52FF" stroke-width="1.7" stroke-linecap="round" stroke-linejoin="round"/>
<path d="M8.99951 31.7922C4.67483 31.4416 0.93457 30.1558 0.93457 27.8182C0.93457 22.4416 5.72678 18 11.5709 18C12.7398 18 13.9086 18.1169 14.9605 18.4675" stroke="#5A52FF" stroke-width="1.7" stroke-linecap="round" stroke-linejoin="round"/>
<path d="M38.2207 19.8701V33.3117" stroke="#5A52FF" stroke-width="1.7" stroke-linecap="round" stroke-linejoin="round"/>
<path d="M31.3242 26.6494H44.9995" stroke="#5A52FF" stroke-width="1.7" stroke-linecap="round" stroke-linejoin="round"/>
</svg>
