<svg width="27" height="7" viewBox="0 0 27 7" fill="none" xmlns="http://www.w3.org/2000/svg">
<g clip-path="url(#clip0_161:139)">
<path d="M23.2002 5.7C24.5809 5.7 25.7002 4.58071 25.7002 3.2C25.7002 1.81929 24.5809 0.699997 23.2002 0.699997C21.8195 0.699997 20.7002 1.81929 20.7002 3.2C20.7002 4.58071 21.8195 5.7 23.2002 5.7Z" stroke="#5A52FF" stroke-width="1.5"/>
<path d="M13.2002 5.7C14.5809 5.7 15.7002 4.58071 15.7002 3.2C15.7002 1.81929 14.5809 0.699997 13.2002 0.699997C11.8195 0.699997 10.7002 1.81929 10.7002 3.2C10.7002 4.58071 11.8195 5.7 13.2002 5.7Z" stroke="#5A52FF" stroke-width="1.5"/>
<path d="M3.2002 5.7C4.58091 5.7 5.7002 4.58071 5.7002 3.2C5.7002 1.81929 4.58091 0.699997 3.2002 0.699997C1.81948 0.699997 0.700195 1.81929 0.700195 3.2C0.700195 4.58071 1.81948 5.7 3.2002 5.7Z" stroke="#5A52FF" stroke-width="1.5"/>
</g>
<defs>
<clipPath id="clip0_161:139">
<rect width="26.5" height="6.5" fill="white"/>
</clipPath>
</defs>
</svg>
