<svg width="21" height="31" viewBox="0 0 21 31" fill="none" xmlns="http://www.w3.org/2000/svg">
<path d="M10.3846 0C4.89231 0 0.369231 4.22002 0 9.64901C0 9.76306 0 9.89993 0 10.014V28.833C0 30.0419 0.969231 31 2.19231 31C3.41538 31 4.38462 30.0419 4.38462 28.833V10.379C4.38462 7.00294 7.2 4.33407 10.5 4.33407C13.8 4.33407 16.6154 7.117 16.6154 10.379C16.6154 13.6409 13.8 16.401 10.5 16.401C9.27692 16.401 8.30769 17.3591 8.30769 18.5681C8.30769 19.777 9.27692 20.7351 10.5 20.7351C16.1077 20.7351 21 16.0361 21 10.3561C21 4.67623 15.9923 0 10.3846 0Z" fill="#5A52FF"/>
</svg>
