<svg width="165" height="28" viewBox="0 0 165 28" fill="none" xmlns="http://www.w3.org/2000/svg">
<path fill-rule="evenodd" clip-rule="evenodd" d="M162.3 11.6981C161.3 11.6981 160.499 12.4981 160.499 13.4981C160.499 16.2981 158.199 18.4981 155.499 18.4981C152.8 18.4981 150.499 16.1981 150.499 13.4981V8.49811H153.9C154.9 8.49811 155.699 7.69811 155.699 6.69811C155.699 5.69811 154.9 4.89811 153.9 4.89811H150.499V2.29811C150.499 1.29811 149.699 0.498108 148.699 0.498108C147.699 0.498108 146.9 1.29811 146.9 2.29811V4.89811H145.3C144.3 4.89811 143.499 5.69811 143.499 6.69811C143.499 7.69811 144.3 8.49811 145.3 8.49811H146.9V13.4981C146.9 18.1981 150.699 22.0981 155.499 22.0981C160.199 22.0981 164.1 18.2981 164.1 13.4981C164.1 12.4981 163.3 11.6981 162.3 11.6981ZM77.2999 12.8982C77.2999 8.39821 81.1999 4.79821 85.8999 4.79821C86.8999 4.79821 87.6999 5.59821 87.6999 6.59821C87.6999 7.59821 86.8999 8.39821 85.8999 8.39821C83.1999 8.39821 80.8999 10.3982 80.8999 12.8982V20.4982C80.8999 21.4982 80.0999 22.2982 79.0999 22.2982C78.0999 22.2982 77.2999 21.4982 77.2999 20.4982V12.8982ZM27.8999 4.89781C23.2999 4.89781 19.2999 8.79781 19.2999 13.4978C19.2999 18.1978 23.1999 22.0978 27.8999 22.0978C28.8999 22.0978 29.6999 21.2978 29.6999 20.2978C29.6999 19.2978 28.8999 18.4988 27.8999 18.4988C25.1999 18.4988 22.8999 16.1978 22.8999 13.4978C22.8999 10.7978 25.1999 8.49781 27.8999 8.49781C30.6999 8.49781 32.8999 10.7978 32.8999 13.4978V21.7978C32.8999 22.7978 33.6999 23.5978 34.6999 23.5978C35.6999 23.5978 36.4999 22.7978 36.4999 21.7978V13.1978V12.8978C36.0999 8.49781 32.3999 4.89781 27.8999 4.89781ZM47.1997 4.99791C42.7997 4.99791 39.0997 8.49791 38.6997 12.7979V13.1979L38.6999 25.698C38.6999 26.698 39.4999 27.498 40.4999 27.498C41.4999 27.498 42.2999 26.698 42.2999 25.698L42.2997 13.5979C42.2997 10.8979 44.5997 8.59791 47.2997 8.59791C49.9997 8.59791 52.2997 10.8979 52.2997 13.5979C52.2997 16.3979 49.9997 18.5979 47.2997 18.5979C46.2997 18.5979 45.4997 19.3979 45.4997 20.3979C45.4997 21.3979 46.2997 22.1979 47.2997 22.1979C51.9997 22.1979 55.8997 18.3979 55.8997 13.5979C55.7997 8.99791 51.7997 4.99791 47.1997 4.99791ZM66.6001 4.99791C62.0001 4.99791 58.0001 8.89791 58.0001 13.5979C58.0001 18.2979 61.8001 22.1979 66.6001 22.1979C67.6001 22.1979 68.4001 21.3979 68.4001 20.3979C68.4001 19.3979 67.6001 18.5979 66.6001 18.5979C63.8001 18.5979 61.6001 16.2979 61.6001 13.5979C61.6001 10.8979 63.9001 8.59791 66.6001 8.59791C68.7001 8.59791 70.6001 9.99791 71.3001 11.8979H67.4001C66.4001 11.8979 65.6001 12.6979 65.6001 13.6979C65.6001 14.6979 66.4001 15.4979 67.4001 15.4979H73.4001C74.4001 15.4979 75.2001 14.6979 75.2001 13.6979C75.2001 8.99791 71.2001 4.99791 66.6001 4.99791ZM89 13.6C89 9.1 92.9 5.5 97.6 5.5C102.3 5.5 106.2 9.2 106.2 13.6V21.2C106.2 22.2 105.4 23 104.4 23C103.4 23 102.6 22.2 102.6 21.2V13.6C102.6 11.1 100.3 9.1 97.6 9.1C94.9 9.1 92.6 11.1 92.6 13.6V21.2C92.6 22.2 91.8 23 90.8 23C89.8 23 89 22.2 89 21.2V13.6ZM136.7 11.7982H132.6C131.7 11.7982 131 11.0982 131 10.1982C131 9.29821 131.7 8.59821 132.6 8.59821H139.5C140.5 8.59821 141.301 7.79821 141.301 6.79821C141.301 5.79821 140.5 4.99821 139.5 4.99821H132.6C129.7 4.99821 127.4 7.29821 127.4 10.1982C127.4 13.0982 129.7 15.3982 132.6 15.3982H136.7C137.6 15.3982 138.301 16.0982 138.301 16.9982C138.301 17.8982 137.6 18.5982 136.7 18.5982H129.801C128.801 18.5982 128 19.3982 128 20.3982C128 21.3982 128.801 22.1972 129.801 22.1972H136.7C139.6 22.1972 141.9 19.8982 141.9 16.9982C141.9 14.0982 139.6 11.7982 136.7 11.7982ZM112.999 5.99791C115.1 4.89791 117.4 4.79791 119.6 5.49791C121.8 6.19791 123.499 7.69791 124.6 9.69791C124.8 10.1979 124.9 10.6979 124.7 11.0979C124.6 11.4979 124.2 11.8979 123.8 12.0979L118.4 14.6979C117.6 15.0979 116.499 14.7979 116.1 13.8979C115.7 13.0979 115.999 11.9979 116.9 11.5979L120.4 9.89791C119.8 9.39791 119.2 8.99791 118.499 8.79791C117.2 8.39791 115.8 8.49791 114.6 9.09791C113.4 9.79791 112.4 10.7979 111.999 12.0979C111.6 13.3979 111.7 14.7979 112.3 15.9979C112.999 17.1979 113.999 18.1979 115.3 18.5979C116.6 18.9979 117.999 18.8979 119.2 18.2979C120.1 17.8979 121.2 18.1979 121.6 19.0979C121.999 19.9979 121.7 21.0979 120.8 21.4979C119.6 22.0979 118.3 22.3979 116.999 22.3979C115.999 22.3979 115.1 22.1979 114.2 21.8979C111.999 21.1979 110.2 19.6979 109.2 17.5979C108.1 15.4979 107.999 13.1979 108.7 10.9979C109.4 8.79791 110.9 6.99791 112.999 5.99791ZM0 12.8978C0.3 8.39781 4 4.89781 8.5 4.89781C13.1 4.89781 17.2 8.79781 17.2 13.4978C17.2 18.1978 13.2 22.0978 8.6 22.0978C7.6 22.0978 6.8 21.2978 6.8 20.2978C6.8 19.2978 7.6 18.4988 8.6 18.4988C11.3 18.4988 13.6 16.1978 13.6 13.4978C13.6 10.7978 11.3 8.49781 8.6 8.49781C5.9 8.49781 3.6 10.6978 3.6 13.4978V25.7019C3.6 26.7019 2.8 27.5019 1.8 27.5019C0.8 27.5019 0 26.7019 0 25.7019V13.1978V12.8978Z" fill="#5A52FF"/>
</svg>

