<svg width="653" height="60" viewBox="0 0 653 60" fill="none" xmlns="http://www.w3.org/2000/svg">
<path d="M38.6416 36H29.8701V34.2598L34.0098 29.8477C34.5781 29.2266 34.9971 28.6846 35.2666 28.2217C35.542 27.7588 35.6797 27.3193 35.6797 26.9033C35.6797 26.335 35.5361 25.8896 35.249 25.5674C34.9619 25.2393 34.5518 25.0752 34.0186 25.0752C33.4443 25.0752 32.9902 25.2744 32.6562 25.6729C32.3281 26.0654 32.1641 26.584 32.1641 27.2285H29.6152C29.6152 26.4492 29.7998 25.7373 30.1689 25.0928C30.5439 24.4482 31.0713 23.9443 31.751 23.5811C32.4307 23.2119 33.2012 23.0273 34.0625 23.0273C35.3809 23.0273 36.4033 23.3438 37.1299 23.9766C37.8623 24.6094 38.2285 25.5029 38.2285 26.6572C38.2285 27.29 38.0645 27.9346 37.7363 28.5908C37.4082 29.2471 36.8457 30.0117 36.0488 30.8848L33.1396 33.9521H38.6416V36ZM48.9775 36H40.2061V34.2598L44.3457 29.8477C44.9141 29.2266 45.333 28.6846 45.6025 28.2217C45.8779 27.7588 46.0156 27.3193 46.0156 26.9033C46.0156 26.335 45.8721 25.8896 45.585 25.5674C45.2979 25.2393 44.8877 25.0752 44.3545 25.0752C43.7803 25.0752 43.3262 25.2744 42.9922 25.6729C42.6641 26.0654 42.5 26.584 42.5 27.2285H39.9512C39.9512 26.4492 40.1357 25.7373 40.5049 25.0928C40.8799 24.4482 41.4072 23.9443 42.0869 23.5811C42.7666 23.2119 43.5371 23.0273 44.3984 23.0273C45.7168 23.0273 46.7393 23.3438 47.4658 23.9766C48.1982 24.6094 48.5645 25.5029 48.5645 26.6572C48.5645 27.29 48.4004 27.9346 48.0723 28.5908C47.7441 29.2471 47.1816 30.0117 46.3848 30.8848L43.4756 33.9521H48.9775V36ZM51.4473 37.0986H49.5576L54.2686 23.2031H56.1582L51.4473 37.0986ZM63.4443 36H60.9043V26.209L57.8721 27.1494V25.084L63.1719 23.1855H63.4443V36ZM76.3818 36H67.6104V34.2598L71.75 29.8477C72.3184 29.2266 72.7373 28.6846 73.0068 28.2217C73.2822 27.7588 73.4199 27.3193 73.4199 26.9033C73.4199 26.335 73.2764 25.8896 72.9893 25.5674C72.7021 25.2393 72.292 25.0752 71.7588 25.0752C71.1846 25.0752 70.7305 25.2744 70.3965 25.6729C70.0684 26.0654 69.9043 26.584 69.9043 27.2285H67.3555C67.3555 26.4492 67.54 25.7373 67.9092 25.0928C68.2842 24.4482 68.8115 23.9443 69.4912 23.5811C70.1709 23.2119 70.9414 23.0273 71.8027 23.0273C73.1211 23.0273 74.1436 23.3438 74.8701 23.9766C75.6025 24.6094 75.9688 25.5029 75.9688 26.6572C75.9688 27.29 75.8047 27.9346 75.4766 28.5908C75.1484 29.2471 74.5859 30.0117 73.7891 30.8848L70.8799 33.9521H76.3818V36ZM78.8516 37.0986H76.9619L81.6729 23.2031H83.5625L78.8516 37.0986ZM93.4502 36H84.6787V34.2598L88.8184 29.8477C89.3867 29.2266 89.8057 28.6846 90.0752 28.2217C90.3506 27.7588 90.4883 27.3193 90.4883 26.9033C90.4883 26.335 90.3447 25.8896 90.0576 25.5674C89.7705 25.2393 89.3604 25.0752 88.8271 25.0752C88.2529 25.0752 87.7988 25.2744 87.4648 25.6729C87.1367 26.0654 86.9727 26.584 86.9727 27.2285H84.4238C84.4238 26.4492 84.6084 25.7373 84.9775 25.0928C85.3525 24.4482 85.8799 23.9443 86.5596 23.5811C87.2393 23.2119 88.0098 23.0273 88.8711 23.0273C90.1895 23.0273 91.2119 23.3438 91.9385 23.9766C92.6709 24.6094 93.0371 25.5029 93.0371 26.6572C93.0371 27.29 92.873 27.9346 92.5449 28.5908C92.2168 29.2471 91.6543 30.0117 90.8574 30.8848L87.9482 33.9521H93.4502V36ZM103.628 30.709C103.628 32.4785 103.262 33.832 102.529 34.7695C101.797 35.707 100.725 36.1758 99.3125 36.1758C97.918 36.1758 96.8516 35.7158 96.1133 34.7959C95.375 33.876 94.9971 32.5576 94.9795 30.8408V28.4854C94.9795 26.6982 95.3486 25.3418 96.0869 24.416C96.8311 23.4902 97.9004 23.0273 99.2949 23.0273C100.689 23.0273 101.756 23.4873 102.494 24.4072C103.232 25.3213 103.61 26.6367 103.628 28.3535V30.709ZM101.088 28.125C101.088 27.0645 100.941 26.2939 100.648 25.8135C100.361 25.3271 99.9102 25.084 99.2949 25.084C98.6973 25.084 98.2549 25.3154 97.9678 25.7783C97.6865 26.2354 97.5371 26.9531 97.5195 27.9316V31.043C97.5195 32.0859 97.6602 32.8623 97.9414 33.3721C98.2285 33.876 98.6855 34.1279 99.3125 34.1279C99.9336 34.1279 100.382 33.8848 100.657 33.3984C100.933 32.9121 101.076 32.168 101.088 31.166V28.125ZM114.122 36H105.351V34.2598L109.49 29.8477C110.059 29.2266 110.478 28.6846 110.747 28.2217C111.022 27.7588 111.16 27.3193 111.16 26.9033C111.16 26.335 111.017 25.8896 110.729 25.5674C110.442 25.2393 110.032 25.0752 109.499 25.0752C108.925 25.0752 108.471 25.2744 108.137 25.6729C107.809 26.0654 107.645 26.584 107.645 27.2285H105.096C105.096 26.4492 105.28 25.7373 105.649 25.0928C106.024 24.4482 106.552 23.9443 107.231 23.5811C107.911 23.2119 108.682 23.0273 109.543 23.0273C110.861 23.0273 111.884 23.3438 112.61 23.9766C113.343 24.6094 113.709 25.5029 113.709 26.6572C113.709 27.29 113.545 27.9346 113.217 28.5908C112.889 29.2471 112.326 30.0117 111.529 30.8848L108.62 33.9521H114.122V36ZM121.856 36H119.316V26.209L116.284 27.1494V25.084L121.584 23.1855H121.856V36Z" fill="#5A52FF"/>
<g clip-path="url(#clip0_335:96)">
<path d="M614.5 37.6C614.8 37.9 615.2 38 615.7 38C616.2 38 616.7 37.8 617 37.4L628.2 23.7C628.8 23 628.6 21.9 627.9 21.4C627.2 20.8 626.2 21 625.6 21.6L615.6 34L611.7 30.2C611 29.6 610 29.7 609.4 30.4C608.9 31 608.9 32 609.4 32.6L614.5 37.6Z" fill="#5A52FF"/>
</g>
<rect x="1" y="1" width="651" height="58" rx="4" stroke="#5A52FF" stroke-width="2"/>
<defs>
<clipPath id="clip0_335:96">
<rect width="19.5" height="17" fill="white" transform="translate(609 21)"/>
</clipPath>
</defs>
</svg>
