<svg width="800" height="600" viewBox="0 0 800 600" fill="none" xmlns="http://www.w3.org/2000/svg">
<rect width="800" height="600" fill="white"/>
<path d="M461.93 276.879L608.329 281.891L575.697 341.151L412.294 359.665L461.93 276.879Z" fill="#EB9500"/>
<path d="M234.153 288.925L461.93 276.879L460.311 357.886L252.858 297.818L234.153 288.925Z" fill="#FFB500"/>
<path d="M319.11 316.074C340.44 311.686 354.169 290.864 349.774 269.568C345.379 248.271 324.525 234.564 303.195 238.952C281.865 243.34 268.136 264.162 272.531 285.458C276.926 306.755 297.78 320.462 319.11 316.074Z" fill="#FFB81D"/>
<path d="M318.446 238.8C323.547 241.306 339.337 251.008 333.669 273.159C327.11 298.949 286.381 308.651 271.806 280.355C272.292 286.984 274.478 293.613 278.445 299.515C290.591 317.544 315.126 322.313 333.183 310.106C351.24 297.979 356.018 273.483 343.791 255.454C337.637 246.399 328.406 240.74 318.446 238.8Z" fill="#EDA71B"/>
<path d="M341.523 252.463C340.957 251.735 340.309 251.008 339.661 250.361C333.021 249.148 324.276 255.131 322.9 256.101C322.414 255.616 321.847 255.131 321.199 254.727C320.47 254.242 319.823 253.918 319.094 253.676C318.932 252.706 318.203 249.229 316.584 245.591C315.045 242.196 313.102 239.689 310.835 238.153C309.944 238.153 308.972 238.234 308.082 238.234C314.478 240.417 316.989 250.361 317.636 253.271C316.179 253.11 314.883 253.433 314.074 254.242C311.159 253.029 295.855 247.451 282.332 253.11C281.118 253.595 279.903 254.242 278.769 254.888C278.122 255.859 277.474 256.829 276.907 257.799C278.688 256.424 280.713 255.212 282.818 254.322C295.288 249.067 309.944 254.08 313.264 255.373C312.94 256.344 313.102 257.556 313.669 258.688C310.592 259.335 301.604 261.599 293.021 266.207C286.867 269.521 282.089 273.402 278.931 277.768C275.854 281.972 274.316 286.661 274.235 291.592C274.721 292.805 275.207 293.937 275.773 295.15C274.964 289.086 276.421 283.508 279.984 278.576C282.98 274.372 287.595 270.653 293.587 267.419C302.575 262.569 312.211 260.386 314.478 259.901C315.045 260.548 315.693 261.194 316.503 261.679C317.151 262.165 317.879 262.488 318.608 262.73C319.094 263.943 321.928 270.977 322.981 280.517C324.033 290.056 323.385 304.043 314.559 316.735C315.126 316.655 315.774 316.655 316.341 316.574C324.762 303.8 325.329 289.895 324.357 280.355C323.466 272.109 321.28 265.641 320.309 263.135C321.523 263.296 322.576 263.054 323.385 262.488C323.709 262.245 324.033 262.003 324.276 261.599C324.357 261.518 324.357 261.437 324.438 261.356C326.867 262.892 340.957 272.028 349.864 285.367C350.026 284.72 350.107 284.074 350.188 283.427C340.471 269.521 325.653 260.467 324.762 259.982C324.762 259.012 324.438 258.041 323.871 257.071C325.41 256.02 335.774 249.148 341.523 252.463Z" fill="#04A890"/>
<path d="M276.826 200.964C272.696 198.539 266.299 198.054 264.923 200.803C263.465 203.47 265.166 205.33 262.17 206.785C259.174 208.24 255.611 207.513 255.935 211.232C256.259 215.031 257.878 217.214 254.801 218.104C251.724 218.993 247.757 220.448 248.242 224.49C248.728 228.533 250.591 229.584 246.947 230.15C243.303 230.715 240.388 230.473 241.522 234.758C242.574 239.043 243.384 241.549 240.145 241.791C236.987 242.034 234.072 242.762 235.449 246.48C236.825 250.199 237.554 252.706 233.991 252.867C230.428 253.11 227.189 252.382 228.728 256.344C229.133 257.395 229.457 258.365 229.7 259.173C231.724 263.296 233.829 267.419 235.853 271.543C246.461 255.373 279.417 205.411 279.417 205.411C279.417 205.411 280.875 203.39 276.826 200.964Z" fill="#04A890"/>
<path d="M282.008 249.229C296.016 221.337 291.32 211.555 279.903 204.602C270.996 199.186 246.38 245.591 235.772 266.611C237.635 273.645 239.74 280.597 242.007 287.469L273.101 317.948C273.101 317.948 300.146 287.065 301.604 281.648C303.142 276.151 282.008 249.229 282.008 249.229Z" fill="#00C7B1"/>
<path d="M277.474 203.552C276.907 203.633 276.259 203.875 275.368 204.36C272.696 205.815 269.457 209.13 265.732 214.062C258.04 224.167 245.084 245.672 233.586 269.198C233.829 269.764 234.072 270.249 234.315 270.815C245.813 246.966 259.093 225.057 266.785 214.87C273.749 205.735 277.069 204.926 277.878 204.845C278.04 204.845 278.121 204.764 278.202 204.603C278.526 204.037 278.04 203.471 277.474 203.552Z" fill="#068C75"/>
<path d="M286.381 254.969C286.381 254.969 291.401 251.654 285.571 245.672C279.741 239.689 260.226 252.786 259.903 253.352L263.061 259.173C263.142 259.254 279.66 250.765 286.381 254.969Z" fill="#04A890"/>
<path d="M294.235 265.883C294.235 265.883 299.255 262.568 293.425 256.586C287.595 250.603 268.081 263.7 267.757 264.266L270.915 270.087C270.996 270.087 287.433 261.679 294.235 265.883Z" fill="#04A890"/>
<path d="M283.061 231.766C273.02 233.302 260.307 223.924 260.226 223.843C260.064 223.762 259.902 223.682 259.821 223.682C259.659 224.005 259.417 224.328 259.255 224.652C259.255 224.733 259.336 224.733 259.336 224.813C259.336 224.894 259.417 224.894 259.498 224.975C259.659 225.056 262.817 227.481 267.352 229.664C273.506 232.656 278.85 233.868 283.385 233.141C285.733 232.736 287.838 231.847 289.62 230.392C289.862 229.583 290.024 228.775 290.186 227.966C288.162 230.068 285.814 231.362 283.061 231.766Z" fill="#04A890"/>
<path d="M287.757 296.928C279.174 304.77 270.024 308.812 267.433 305.902C264.761 302.991 269.619 294.26 278.202 286.418C286.785 278.576 295.935 274.534 298.527 277.444C301.199 280.354 296.34 289.086 287.757 296.928Z" fill="#068C75"/>
<path d="M280.794 277.121C278.364 273.726 275.692 269.764 272.939 265.075C267.595 256.344 263.627 248.663 263.546 248.583C263.384 248.259 263.465 247.855 263.87 247.693C264.194 247.532 264.599 247.612 264.761 248.017C264.923 248.34 280.793 278.819 291.482 287.227C291.806 287.469 291.806 287.874 291.563 288.197C291.32 288.52 290.915 288.52 290.591 288.278C287.838 286.014 284.518 282.295 280.794 277.121Z" fill="#068C75"/>
<path d="M228.971 210.423C228.971 210.423 228.647 207.836 223.951 208.807C219.254 209.777 214.234 213.738 215.044 216.729C215.853 219.721 218.282 219.963 217.068 223.035C215.853 226.108 212.695 227.967 215.529 230.554C218.363 233.06 221.036 233.626 219.335 236.375C217.635 239.124 215.691 242.923 218.849 245.511C221.926 248.098 223.951 247.693 221.683 250.604C219.416 253.514 217.068 255.212 220.793 257.637C224.436 260.063 226.704 261.356 224.517 263.701C222.331 266.045 220.712 268.471 224.274 270.33C227.837 272.19 230.024 273.483 227.513 276.07C225.003 278.657 222.169 280.274 225.975 282.134C229.781 284.074 231.724 285.287 230.185 287.469C228.647 289.652 223.87 294.826 230.752 297.899C237.635 301.052 243.222 298.545 242.412 294.18C241.684 289.895 228.971 210.423 228.971 210.423Z" fill="#04A890"/>
<path d="M241.198 295.554C241.198 295.554 215.691 211.959 228.809 209.453C241.927 206.866 251.967 210.989 260.55 240.983C260.55 240.983 293.668 245.995 296.178 251.008C303.547 266.045 295.045 294.179 295.045 294.179L241.198 295.554Z" fill="#00C7B1"/>
<path d="M241.036 296.201C240.793 296.12 240.631 295.958 240.55 295.716C231.805 268.147 225.975 239.771 224.679 225.946C224.112 219.802 224.274 215.193 225.246 212.283C225.57 211.313 225.894 210.666 226.218 210.262C226.623 209.777 227.351 209.938 227.513 210.504C227.594 210.666 227.513 210.828 227.432 210.909C226.785 211.475 224.922 214.385 225.975 225.784C227.27 239.528 233.1 267.824 241.765 295.312C241.846 295.635 241.684 296.039 241.279 296.201C241.279 296.201 241.198 296.282 241.036 296.201Z" fill="#068C75"/>
<path d="M249.457 227.401C243.141 235.324 227.351 236.941 227.189 236.941C227.027 236.941 226.866 237.022 226.785 237.103C226.866 237.426 226.946 237.831 226.946 238.235C227.027 238.235 227.027 238.316 227.108 238.316C227.189 238.316 227.27 238.316 227.351 238.316C227.513 238.316 231.481 237.911 236.339 236.456C242.898 234.516 247.676 231.767 250.51 228.291C252.048 226.431 252.939 224.329 253.263 222.066C252.858 221.338 252.453 220.61 252.048 219.883C252.129 222.712 251.238 225.219 249.457 227.401Z" fill="#04A890"/>
<path d="M278.445 262.326C274.397 261.437 269.7 260.305 264.518 258.769C254.72 255.94 246.542 252.948 246.461 252.867C246.137 252.706 245.894 252.382 246.056 251.978C246.218 251.655 246.542 251.412 246.947 251.574C247.271 251.655 279.579 263.539 293.183 262.569C293.587 262.569 293.911 262.811 293.911 263.216C293.911 263.62 293.668 263.943 293.263 263.943C289.701 264.186 284.761 263.701 278.445 262.326Z" fill="#068C75"/>
<path d="M296.933 272.303C297.969 260.74 295.632 251.083 291.713 250.732C287.793 250.382 283.775 259.471 282.738 271.034C281.702 282.596 284.039 292.254 287.958 292.604C291.878 292.954 295.896 283.865 296.933 272.303Z" fill="#068C75"/>
<path d="M267.19 241.872C267.19 241.872 268.729 236.051 260.388 235.566C252.048 235.081 246.461 257.96 246.623 258.526L252.858 260.709C252.939 260.628 259.336 243.327 267.19 241.872Z" fill="#04A890"/>
<path d="M280.389 244.621C280.389 244.621 281.927 238.8 273.587 238.315C265.247 237.83 259.66 260.709 259.822 261.275L266.056 263.458C266.056 263.377 272.534 246.076 280.389 244.621Z" fill="#04A890"/>
<path d="M475.372 251.089C475.372 251.089 477.558 228.695 505.737 222.631C505.737 222.631 480.23 199.671 508.733 187.059C537.235 174.447 578.046 188.999 583.795 205.088C589.544 221.257 578.046 227.805 578.046 227.805C578.046 227.805 599.665 236.537 604.605 251.897C609.544 267.177 610.192 287.389 610.192 287.389L476.505 282.861C476.505 282.861 474.319 259.012 475.372 251.089Z" fill="#00C7B1"/>
<path d="M578.127 227.886C574.483 230.15 571.163 231.039 571.163 231.039C578.288 235.647 585.981 258.365 554.158 262.731C522.417 267.096 498.287 244.136 495.858 232.656C493.429 221.176 516.668 221.742 516.668 221.742C496.425 207.432 497.073 197.811 499.988 192.88C486.951 205.654 505.899 222.712 505.899 222.712C477.72 228.695 475.534 251.17 475.534 251.17C474.4 259.093 476.667 282.861 476.667 282.861L610.354 287.389C610.354 287.389 609.706 267.258 604.767 251.897C599.827 236.86 578.855 228.129 578.127 227.886Z" fill="#04A890"/>
<path d="M549.462 240.013C549.462 240.013 511.162 215.436 519.34 197.084C527.518 178.732 576.264 195.71 578.208 209.13C580.151 222.551 563.471 233.788 549.462 240.013Z" fill="#04A890"/>
<path d="M551.163 294.179C550.758 294.179 550.434 293.856 550.515 293.451C551.082 259.415 548.895 240.417 548.895 240.255C548.814 239.851 549.138 239.527 549.462 239.527C549.867 239.446 550.191 239.77 550.191 240.093C550.191 240.255 552.377 259.415 551.81 293.532C551.81 293.856 551.487 294.179 551.163 294.179Z" fill="#69F9E4"/>
<path d="M549.381 238.8C549.381 238.8 542.417 249.876 545.899 250.765C549.381 251.735 554.078 250.765 554.725 249.795C555.373 248.906 551.001 239.123 549.381 238.8Z" fill="#69F9E4"/>
<path d="M593.269 258.607C593.269 258.203 592.945 257.96 592.54 257.96C592.135 257.96 591.892 258.283 591.892 258.688L593.997 286.822L595.374 286.903L593.269 258.607Z" fill="#00C7B1"/>
<path d="M504.279 264.59C504.279 264.186 503.955 263.943 503.55 263.943C503.145 263.943 502.903 264.267 502.903 264.671L504.279 283.751L505.656 283.831L504.279 264.59Z" fill="#00C7B1"/>
<path d="M452.78 202.178C452.78 202.178 451.647 213.092 462.902 215.841C474.157 218.589 479.906 206.301 479.906 206.301L485.089 214.466L474.967 249.715L440.149 236.861L448.651 204.603L452.78 202.178Z" fill="#E85B8E"/>
<path d="M489.947 239.528C480.392 231.605 489.704 215.194 489.704 211.07C489.704 206.947 483.955 204.765 480.959 204.522C477.963 204.279 470.513 233.222 469.218 237.022C468.003 240.418 456.343 238.154 448.975 234.597C441.606 231.039 453.347 204.522 453.347 202.339C453.347 200.156 450.918 200.156 444.278 200.965C437.719 201.773 437.152 209.454 434.156 221.176C431.16 232.899 425.411 230.716 414.156 231.848C402.901 232.98 404.601 266.612 404.601 267.097L406.545 294.988L496.344 299.597C496.344 299.597 505.089 255.293 505.089 252.059C505.008 248.825 499.502 247.451 489.947 239.528Z" fill="#FF6C95"/>
<path d="M489.947 239.528C487.518 237.507 486.303 235.001 485.817 232.252C484.441 235.809 474.886 256.263 440.634 262.488C414.561 267.258 407.031 258.123 404.844 252.14C404.197 259.901 404.52 266.935 404.52 267.177L406.464 295.069L496.263 299.677C496.263 299.677 505.008 255.374 505.008 252.14C505.008 248.825 499.502 247.451 489.947 239.528Z" fill="#E85B8E"/>
<path d="M330.754 288.359C330.754 288.359 335.369 264.59 342.819 260.467C350.187 256.344 424.44 244.298 447.679 255.535C470.918 266.773 490.433 288.925 490.433 288.925L478.935 313.017L337.313 307.196L330.754 288.359Z" fill="#9494FF"/>
<path d="M330.835 288.601L337.313 307.277L478.935 313.017L490.433 288.925C490.433 288.925 470.999 266.773 447.679 255.535C444.926 254.242 441.525 253.272 437.638 252.544C442.659 254.969 450.594 260.709 447.598 271.866C443.226 287.712 426.545 296.605 383.791 291.916C353.184 288.52 337.394 288.359 330.835 288.601Z" fill="#5A52FF"/>
<path d="M419.015 269.603C430.27 265.156 428.65 256.829 425.897 251.17C411.565 250.281 393.994 251.493 378.69 253.433C383.872 258.365 403.468 275.747 419.015 269.603Z" fill="#5A52FF"/>
<path d="M348.163 264.995C356.746 271.22 363.548 284.317 367.759 294.18L369.054 293.614C357.88 267.42 347.353 261.761 342.414 260.629C341.928 260.952 341.442 261.357 341.038 261.761C342.414 262.003 344.924 262.65 348.163 264.995Z" fill="#5A52FF"/>
<path d="M272.777 111.711C264.194 109.285 255.368 114.298 252.939 122.867L251.967 126.344L248.485 125.374C239.902 122.948 231.076 127.961 228.647 136.53C226.218 145.1 231.238 153.912 239.821 156.338L243.303 157.308C243.303 157.308 257.311 161.108 266.704 164.018C270.996 165.312 275.449 162.805 276.583 158.44C278.931 148.9 282.98 134.994 282.98 134.994L283.951 131.518C286.3 122.948 281.36 114.055 272.777 111.711Z" fill="#C3C2FF"/>
<path d="M272.777 111.711C264.194 109.285 255.368 114.298 252.939 122.867L251.967 126.344L265.085 149.547C268.486 155.61 277.555 154.478 279.417 147.768C281.279 140.977 282.98 134.994 282.98 134.994L283.951 131.518C286.3 122.948 281.36 114.055 272.777 111.711Z" fill="#C3C2FF"/>
<path opacity="0.2" d="M233.424 143.563C233.667 144.453 233.991 145.342 234.477 146.231" stroke="white" stroke-width="4.9543" stroke-miterlimit="10" stroke-linecap="round"/>
<path opacity="0.2" d="M236.177 133.135C234.963 134.428 233.991 135.964 233.505 137.824" stroke="white" stroke-width="4.9543" stroke-miterlimit="10" stroke-linecap="round"/>
<path opacity="0.2" d="M258.526 121.735C258.04 122.544 257.635 123.433 257.392 124.403" stroke="white" stroke-width="4.9543" stroke-miterlimit="10" stroke-linecap="round"/>
<path d="M560.556 155.529C559.584 150.354 554.644 146.878 549.381 147.848L547.276 148.252L546.871 146.15C545.899 140.976 540.96 137.5 535.697 138.47C530.514 139.44 527.033 144.372 528.004 149.627L528.409 151.729C528.409 151.729 530.029 160.218 530.919 165.958C531.324 168.545 533.834 170.323 536.426 169.757C542.094 168.545 550.677 167.009 550.677 167.009L552.782 166.604C558.126 165.715 561.527 160.703 560.556 155.529Z" fill="#5A52FF"/>
<path d="M560.556 155.528C559.584 150.354 554.644 146.878 549.381 147.848L547.276 148.252L538.288 161.268C535.94 164.664 538.936 169.191 542.984 168.464C547.114 167.655 550.758 167.009 550.758 167.009L552.863 166.604C558.126 165.715 561.527 160.703 560.556 155.528Z" fill="#5A52FF"/>
<path opacity="0.2" d="M533.187 142.917C532.782 143.321 532.377 143.725 532.053 144.211" stroke="white" stroke-width="2.9452" stroke-miterlimit="10" stroke-linecap="round"/>
<path opacity="0.2" d="M539.502 141.623C538.531 141.3 537.397 141.219 536.263 141.381" stroke="white" stroke-width="2.9452" stroke-miterlimit="10" stroke-linecap="round"/>
<path opacity="0.2" d="M551.487 150.597C550.92 150.516 550.353 150.597 549.786 150.678" stroke="white" stroke-width="2.9452" stroke-miterlimit="10" stroke-linecap="round"/>
<path d="M519.259 106.779C515.939 104.111 511.081 104.596 508.328 107.911L507.194 109.285L505.818 108.153C502.498 105.405 497.639 105.89 494.967 109.204C492.295 112.519 492.781 117.37 496.101 120.119L497.477 121.25C497.477 121.25 502.984 125.616 506.546 128.688C508.166 130.063 510.676 129.82 511.972 128.122C514.887 124.403 519.34 118.987 519.34 118.987L520.474 117.612C523.065 114.298 522.579 109.447 519.259 106.779Z" fill="#FFA9C4"/>
<path d="M519.259 106.779C515.939 104.111 511.081 104.596 508.328 107.911L507.194 109.285L508.49 122.059C508.814 125.373 513.024 126.667 515.129 123.999C517.235 121.331 519.178 119.068 519.178 119.068L520.312 117.693C523.065 114.298 522.579 109.447 519.259 106.779Z" fill="#FFA9C4"/>
<path opacity="0.2" d="M495.696 113.246C495.615 113.731 495.615 114.135 495.696 114.62" stroke="white" stroke-width="2.3876" stroke-miterlimit="10" stroke-linecap="round"/>
<path opacity="0.2" d="M498.935 109.204C498.125 109.527 497.396 110.013 496.83 110.74" stroke="white" stroke-width="2.3876" stroke-miterlimit="10" stroke-linecap="round"/>
<path opacity="0.2" d="M511 108.396C510.595 108.638 510.271 108.961 509.947 109.366" stroke="white" stroke-width="2.3876" stroke-miterlimit="10" stroke-linecap="round"/>
<path d="M322.98 147.606C321.28 144.13 316.988 142.755 313.507 144.453L312.13 145.181L311.401 143.806C309.701 140.33 305.409 138.956 301.927 140.653C298.446 142.351 297.069 146.636 298.769 150.112L299.498 151.487C299.498 151.487 302.413 157.146 304.195 161.026C305.004 162.805 307.191 163.533 308.891 162.563C312.697 160.541 318.365 157.793 318.365 157.793L319.742 157.065C323.304 155.286 324.762 151.082 322.98 147.606Z" fill="#FF6C95"/>
<path d="M322.98 147.606C321.28 144.13 316.988 142.755 313.507 144.453L312.13 145.181L308.405 156.257C307.434 159.167 310.43 161.754 313.183 160.38C315.936 159.005 318.365 157.793 318.365 157.793L319.742 157.065C323.304 155.286 324.762 151.083 322.98 147.606Z" fill="#FF6C95"/>
<path opacity="0.2" d="M301.118 144.211C300.875 144.534 300.713 144.939 300.551 145.343" stroke="white" stroke-width="2.1641" stroke-miterlimit="10" stroke-linecap="round"/>
<path opacity="0.2" d="M305.328 142.027C304.518 142.027 303.79 142.189 302.98 142.512" stroke="white" stroke-width="2.1641" stroke-miterlimit="10" stroke-linecap="round"/>
<path opacity="0.2" d="M315.531 145.908C315.126 145.989 314.721 146.151 314.316 146.312" stroke="white" stroke-width="2.1641" stroke-miterlimit="10" stroke-linecap="round"/>
<path opacity="0.3" d="M732.947 464.926H649.869C644.767 464.926 640.233 465.573 637.156 466.624C634.727 465.896 620.556 457.893 612.297 457.327C612.216 457.327 612.135 457.327 612.054 457.327C611.568 457.327 611.083 457.246 610.597 457.246C610.354 457.246 610.111 457.246 609.868 457.165C609.382 457.165 608.896 457.084 608.33 457.084C608.087 457.084 607.763 457.084 607.52 457.003C607.034 457.003 606.467 456.922 605.981 456.922C605.738 456.922 605.414 456.922 605.172 456.922C604.605 456.922 604.119 456.842 603.552 456.842C603.228 456.842 602.985 456.842 602.661 456.842C602.419 456.842 602.257 456.842 602.014 456.842C602.58 456.599 602.904 456.437 602.904 456.195V453.85C602.904 453.527 602.176 453.203 600.88 452.88C595.374 451.344 580.718 456.033 563.308 455.791C554.563 455.629 552.782 457.246 545.98 457.327C511.972 457.407 484.765 459.105 484.765 461.126V463.471C484.765 463.713 485.251 464.037 486.222 464.279H363.062C362.9 464.279 362.738 464.279 362.576 464.279C362.01 464.279 361.524 464.198 360.957 464.198C360.633 464.198 360.39 464.198 360.066 464.198C359.823 464.198 359.661 464.198 359.418 464.198C359.985 463.956 360.309 463.794 360.309 463.552V461.207C360.309 460.884 359.58 460.56 358.285 460.237C352.779 458.701 332.292 457.731 314.883 457.488C306.138 457.327 301.927 457.246 295.126 457.407C261.117 457.488 233.181 456.114 233.181 458.216V460.56C233.181 460.803 234.477 464.118 234.639 461.369H107.511C94.6365 464.36 83.3812 467.432 82.0857 471.232H74.7981C58.4415 471.232 45 475.032 45 479.721C45 484.41 58.4415 488.21 74.7981 488.21H329.134C343.467 488.21 355.532 485.299 358.285 481.419H565.333C574.078 481.419 581.932 480.206 586.71 478.266C592.621 478.104 598.046 477.942 602.904 477.7H716.348C723.473 477.7 729.465 476.245 730.923 474.385H732.947C742.016 474.385 749.385 472.283 749.385 469.696C749.385 467.109 742.016 464.926 732.947 464.926Z" fill="url(#paint0_linear_9:9074)"/>
<path d="M386.382 328.458C386.301 345.679 393.67 359.018 402.82 359.018C412.051 359.018 419.662 345.679 419.905 328.458C420.148 311.238 412.779 296.524 403.468 296.524C394.156 296.524 386.463 311.238 386.382 328.458Z" fill="white"/>
<path d="M161.034 331.046L266.866 324.093L266.461 299.112L229.214 285.691L224.436 285.772L159.577 326.599C157.472 327.974 158.524 331.208 161.034 331.046Z" fill="#EB9500"/>
<path d="M381.038 380.038L401.038 294.746L562.013 314.311L604.767 365.81L601.447 453.446L410.674 474.143L381.038 380.038Z" fill="#FFCC00"/>
<path d="M230.104 373.328L235.125 456.922L298.77 463.147L312.859 448.999L326.219 465.815L410.674 474.142L408.731 300.243L301.037 322.88L230.104 373.328Z" fill="#FFB500"/>
<path d="M298.769 463.148L296.988 399.36L299.903 401.786L303.223 400.007L307.272 402.352L310.672 400.411L314.802 403.079L317.555 400.896L321.847 403.564L325.329 401.462L326.219 465.816L298.769 463.148Z" fill="#FFA900"/>
<path d="M276.178 435.983L264.275 419.005C264.032 418.763 263.546 418.763 263.303 419.005L251.562 434.932C250.995 435.336 251.319 436.225 252.048 436.306L259.336 436.63L259.74 451.99C259.74 452.394 260.064 452.718 260.469 452.718L268.081 453.041C268.485 453.041 268.89 452.718 268.89 452.233L268.485 436.953L275.611 437.276C276.34 437.357 276.664 436.468 276.178 435.983Z" fill="#FFA900"/>
<path d="M403.873 296.524L408.731 300.324L442.659 380.362C443.63 382.706 446.14 384.161 448.651 383.838L604.767 365.89L606.872 310.511L578.369 294.018L408.65 290.865L403.873 296.524Z" fill="#FAB412"/>
<path d="M230.104 373.328L367.597 390.548C373.103 391.275 378.366 387.961 380.228 382.706L408.731 300.243L408.65 294.988L408.569 290.784L294.154 300.162L227.918 337.836L230.104 373.328Z" fill="#FFA900"/>
<path d="M463.469 360.716L646.711 338.968C651.245 338.402 653.431 333.067 650.516 329.509L608.087 277.93L408.65 290.865L433.185 326.599L458.286 358.533C459.501 360.069 461.444 360.958 463.469 360.716Z" fill="#FBA700"/>
<path d="M224.274 285.125L202.25 335.169C199.011 342.526 203.95 350.853 211.966 351.661L364.682 366.132C369.621 366.618 374.398 363.869 376.504 359.422L408.65 290.865L224.274 285.125Z" fill="#F99900"/>
<path d="M724.688 461.692C724.688 461.692 724.283 466.543 724.688 467.432C724.85 467.756 726.388 468.807 728.251 468.969C735.214 469.615 735.943 468.645 736.186 468.403C736.672 467.998 734.566 464.522 732.623 461.854C730.68 459.186 724.688 461.692 724.688 461.692Z" fill="#202096"/>
<path d="M708.817 462.096C706.064 461.369 704.525 461.369 703.554 461.449C701.367 462.339 694.404 464.602 692.865 464.926C691.732 465.168 691.246 466.381 692.218 466.947C692.46 467.109 692.784 467.189 693.108 467.189C695.376 467.351 700.072 467.513 703.149 467.27C703.959 467.189 704.525 467.109 705.092 466.947C706.712 466.624 708.412 466.543 710.032 466.704C711.489 466.866 713.19 466.866 713.19 466.543V462.824C712.299 462.824 710.922 462.662 708.817 462.096Z" fill="#202096"/>
<path d="M722.987 463.552C727.036 464.28 730.842 464.36 734.323 463.552C734.323 463.552 735.295 456.761 735.214 447.868C735.133 441.481 733.919 434.124 733.433 428.788C732.704 420.38 733.271 405.424 733.757 396.207C734 391.438 732.38 386.425 732.38 386.425L714.809 379.715C714.809 379.715 713.837 385.617 711.489 387.395C709.222 389.093 707.036 391.033 706.793 393.539C706.469 397.339 705.173 403.564 704.525 408.334C703.878 412.781 702.906 423.129 702.582 427.414C702.339 430.729 702.987 432.831 703.149 436.064C703.311 438.166 703.311 440.915 703.068 444.877C702.582 453.446 702.015 459.833 701.853 461.612C701.853 461.935 702.663 461.935 704.444 462.097C705.254 462.178 706.145 462.42 707.278 462.743C710.841 463.794 712.461 463.633 712.461 463.633H713.19C713.432 463.794 715.457 443.987 714.89 429.435C714.809 426.525 717.724 414.398 718.696 406.313C718.696 406.151 718.777 405.909 718.777 405.909C718.777 405.909 719.667 418.521 719.748 420.299C719.991 427.899 721.449 432.103 722.178 434.609C722.906 437.115 723.878 447.383 723.635 454.821C723.311 462.258 722.987 463.552 722.987 463.552Z" fill="#00C7B1"/>
<path opacity="0.22" d="M718.696 406.232C718.696 405.989 718.696 405.747 718.696 405.585C718.696 404.13 718.534 402.674 718.291 401.219C717.967 399.441 715.052 393.458 715.052 393.458C715.052 393.458 716.105 398.713 716.429 400.572C716.671 402.432 713.514 419.733 712.542 426.12C711.651 432.507 711.813 448.676 711.003 453.931C710.437 458.054 709.384 461.611 708.979 462.985C711.408 463.551 712.542 463.39 712.542 463.39H713.271C713.513 463.551 715.538 443.744 714.971 429.192C714.809 426.524 717.724 414.397 718.696 406.232C718.696 406.313 718.696 406.313 718.696 406.232Z" fill="#37548E"/>
<path opacity="0.22" d="M733.433 428.788C732.704 420.703 733.271 404.453 733.757 396.207C732.866 396.288 730.761 396.369 728.332 396.288C729.222 397.177 730.275 398.471 730.599 399.764C731.166 402.028 729.951 424.018 730.599 428.707C731.247 433.396 732.299 442.936 732.056 450.535C731.894 455.709 730.68 464.037 730.68 464.037C731.975 463.956 733.19 463.794 734.324 463.552C734.324 463.552 735.295 456.761 735.214 447.867C735.133 441.4 733.919 434.124 733.433 428.788Z" fill="#37548E"/>
<path d="M728.898 328.943C728.898 328.943 728.979 325.709 725.012 324.82C721.044 323.931 719.182 324.173 717.643 325.467C716.105 326.68 715.214 329.024 715.214 329.59C715.214 330.237 714.728 331.288 715.214 336.381C715.7 341.474 717.157 342.444 718.777 342.606C720.396 342.768 724.364 341.879 725.578 340.342C726.793 338.806 727.36 337.513 727.36 337.513C727.36 337.513 729.384 337.917 729.87 336.866C730.356 335.896 731.49 333.066 729.87 332.824C728.251 332.581 728.17 333.39 728.17 333.39C728.17 333.39 728.979 330.722 728.17 330.318C727.441 330.075 728.898 328.943 728.898 328.943Z" fill="#BEC7FA"/>
<path d="M728.412 335.411C728.412 335.411 726.955 340.504 727.441 342.606C727.927 344.628 728.655 345.274 725.983 347.942C723.311 350.529 719.262 354.895 717.4 352.955C716.024 351.499 717.076 345.921 717.967 343.091C718.291 342.04 717.967 340.989 717.967 340.424C717.643 337.998 728.412 335.411 728.412 335.411Z" fill="#BEC7FA"/>
<path d="M715.457 322.961C717.319 321.748 719.91 320.454 724.121 320.859C726.793 321.101 730.518 323.607 731.246 326.114C731.894 328.297 730.923 331.126 730.032 332.824C728.655 332.581 728.412 333.228 728.331 333.39C727.927 333.309 727.198 332.5 727.198 332.5V330.884C727.198 330.884 727.927 326.518 724.04 325.629C720.153 324.739 719.424 324.173 717.886 325.386C716.347 326.599 715.457 328.943 715.457 329.509C715.457 329.671 715.457 329.833 715.376 330.075C715.133 329.671 714.89 329.267 714.566 329.024C712.542 327.731 712.056 325.224 715.457 322.961Z" fill="#FFB81D"/>
<path d="M727.441 339.777C727.522 339.049 727.684 338.241 727.846 337.594C728.089 337.594 728.413 337.594 728.737 337.594C728.979 337.513 727.441 339.777 727.441 339.777Z" fill="#E09E1B"/>
<path d="M686.064 332.743C686.064 332.743 692.865 340.989 696.752 342.364C700.639 343.738 708.25 344.789 710.679 343.981C712.866 343.253 716.186 343.657 717.562 343.091C717.724 343.011 717.967 342.849 718.048 342.687C717.562 344.547 717.724 345.436 717.724 346.972C717.724 348.266 718.696 349.317 719.586 349.963C719.829 350.125 721.206 354.814 721.449 354.248C723.392 349.317 727.441 342.364 727.441 342.364C727.441 342.364 729.951 345.032 735.457 347.134C738.777 348.427 739.749 348.266 740.882 352.065C742.016 355.865 739.101 356.997 737.401 360.312C735.7 363.626 732.623 378.098 733.271 383.433C734 389.012 735.295 391.761 736.348 393.216C736.834 393.782 736.429 394.671 735.7 394.752C730.842 395.399 720.477 397.016 719.182 395.237L715.943 385.697C715.943 385.697 717.319 396.53 714.485 396.369C713.352 396.288 710.032 395.722 708.979 395.237L706.226 394.348C709.627 375.996 708.898 362.333 708.25 359.099C707.602 355.784 707.522 354.086 700.963 353.359C694.404 352.631 694.971 352.55 692.056 351.095C689.141 349.64 683.068 339.453 682.339 337.594C682.42 337.998 685.902 334.926 686.064 332.743Z" fill="#202096"/>
<path opacity="0.25" d="M736.672 369.851C736.672 369.77 736.672 369.77 736.753 369.689C736.672 369.77 736.672 369.851 736.672 369.851Z" fill="#33A0E5"/>
<path d="M717.967 343.01C718.048 342.767 718.048 342.606 718.129 342.363C718.372 342.444 718.696 342.525 718.939 342.525C720.558 342.687 724.526 341.797 725.74 340.261C726.955 338.725 727.522 337.432 727.522 337.432C727.522 337.432 727.684 337.432 727.927 337.512C727.927 337.512 727.117 340.423 725.579 341.959C723.959 343.495 721.368 344.546 717.967 343.01Z" fill="#9EAEEF"/>
<path d="M729.384 324.335C728.17 322.637 726.631 321.586 725.093 321.021C727.603 321.667 730.518 323.85 731.166 326.114C731.813 328.297 730.842 331.126 729.951 332.824C728.574 332.581 728.331 333.228 728.25 333.39C728.25 333.39 728.25 333.39 728.17 333.39C727.765 333.309 727.036 332.581 727.036 332.581C728.331 331.207 731.651 327.569 729.384 324.335Z" fill="#E09E1B"/>
<path d="M714.485 329.105C714.323 328.943 714.08 328.781 713.837 328.458C713.675 327.892 713.514 327.245 713.675 326.275C713.999 323.284 718.21 323.445 721.854 325.143C719.667 324.577 718.939 324.416 717.724 325.386C716.186 326.598 715.295 328.943 715.295 329.509C715.295 329.671 715.295 329.832 715.214 330.075C715.052 329.751 714.809 329.347 714.485 329.105Z" fill="#E09E1B"/>
<path d="M719.343 348.023C719.505 348.104 719.667 348.104 719.829 348.185C720.396 348.346 720.882 348.427 721.449 348.427C722.744 348.427 723.797 348.023 724.769 347.295C722.825 351.257 719.02 359.422 718.777 360.231L718.696 360.15C718.291 357.563 717.643 349.721 717.724 347.134C718.21 347.457 718.777 347.781 719.343 348.023Z" fill="#EAF1FE"/>
<path d="M730.761 332.743C730.842 332.743 730.923 332.743 730.923 332.662C731.004 332.5 733.028 328.943 732.137 325.79C731.732 324.416 730.842 323.284 729.465 322.556C724.85 320.05 721.692 320.939 721.53 320.939C721.449 320.939 721.368 321.101 721.368 321.182C721.368 321.263 721.53 321.344 721.611 321.344C721.611 321.344 724.769 320.535 729.222 322.961C730.518 323.688 731.328 324.658 731.732 325.952C732.623 328.943 730.599 332.5 730.599 332.5C730.518 332.581 730.599 332.743 730.68 332.824C730.68 332.662 730.761 332.743 730.761 332.743Z" fill="#E09E1B"/>
<path d="M717.967 342.849C717.967 343.981 718.21 346.972 719.101 347.457C719.748 347.781 724.202 345.355 725.497 343.9C726.955 342.364 727.441 339.615 727.441 339.615C727.441 339.615 727.522 342.687 727.846 342.93C728.008 343.011 728.089 344.547 727.117 346.325C723.797 352.551 715.052 365.971 715.052 365.971C715.052 365.971 713.351 362.414 713.999 357.24C714.404 353.602 716.428 348.266 717.238 345.274C717.4 344.304 717.967 342.607 717.967 342.849Z" fill="#EAF1FE"/>
<path d="M717.967 342.849C717.967 343.981 718.21 346.972 719.101 347.457C719.748 347.781 724.202 345.355 725.497 343.9C726.955 342.364 727.441 339.615 727.441 339.615C727.441 339.615 727.522 342.687 727.846 342.93C728.008 343.011 728.089 344.547 727.117 346.325C723.797 352.551 715.133 367.588 715.133 367.588C715.133 367.588 713.351 362.495 713.999 357.24C714.404 353.602 716.428 348.266 717.238 345.274C717.4 344.304 717.967 342.607 717.967 342.849Z" fill="#EAF1FE"/>
<path d="M714.971 352.55C715.7 351.338 718.858 347.942 719.181 348.104C719.667 348.346 722.097 352.793 722.744 354.167C723.311 353.359 723.554 352.793 723.554 352.793C723.554 352.793 719.91 347.619 719.343 347.457C719.02 347.376 716.267 349.802 715.376 351.095C715.376 351.257 714.971 352.469 714.971 352.55Z" fill="#C5D5EF"/>
<path d="M676.752 327.327C676.752 327.246 676.104 327.488 676.509 328.701C676.671 329.267 677.319 330.48 677.723 330.56C678.128 330.641 678.533 330.156 678.047 329.59C677.723 329.267 676.833 327.65 676.752 327.327Z" fill="#F6A19C"/>
<path d="M683.634 336.785L682.582 334.198C682.582 334.198 679.019 326.517 678.29 326.517C677.561 326.517 670.679 320.697 671.569 322.879C672.055 324.011 674.565 326.922 674.97 327.326C675.375 327.73 678.128 333.632 679.262 334.521C680.072 335.168 681.205 335.411 681.205 335.411C681.205 335.411 681.205 335.411 681.61 335.976C681.853 336.3 682.177 337.027 682.501 337.836C682.663 337.674 683.068 337.27 683.634 336.785Z" fill="#9EAEEF"/>
<path d="M685.821 333.713C685.092 333.067 683.715 331.854 682.663 330.641C681.205 328.863 679.748 326.842 678.776 326.033C677.804 325.305 676.671 324.578 675.294 323.689C673.918 322.799 672.46 321.182 671.812 321.425C671.165 321.667 671.732 322.799 672.46 323.365C673.108 323.931 674.323 324.982 674.97 325.791C675.618 326.599 675.861 326.761 676.023 327.084C676.104 327.246 676.509 327.731 676.914 328.216C677.319 328.701 677.076 329.429 676.428 329.509C675.942 329.59 673.594 327.973 672.865 329.267C672.622 329.671 673.351 330.399 674.727 330.965C675.294 331.207 678.452 333.228 679.586 333.794C680.719 334.36 681.124 334.199 681.367 334.603C681.529 334.845 682.096 336.139 682.825 337.513C683.554 336.947 685.173 335.25 685.821 333.713Z" fill="#BEC7FA"/>
<path d="M675.294 323.688C675.294 323.688 678.452 327.003 678.695 327.327C678.857 327.65 679.586 326.841 675.294 323.688Z" fill="#9EAEEF"/>
<path d="M751.247 363.788C749.304 360.23 739.911 348.831 738.777 348.508C738.696 348.508 734.566 356.673 734.566 361.847C734.89 361.928 737.886 362.979 738.21 363.222C740.558 365.243 743.069 367.668 745.741 370.902C743.069 376.319 739.911 381.008 736.267 384.727C736.267 384.727 736.348 384.969 737.724 386.02C739.344 387.152 739.668 388.041 741.206 388.688C742.745 389.335 752.866 374.378 753.757 371.387C754.567 368.477 753.19 367.426 751.247 363.788Z" fill="#202096"/>
<path d="M737.725 386.02C736.915 385.454 736.591 385.131 736.348 384.969C736.024 385.05 735.619 385.131 735.214 385.05C734.162 384.807 733.271 383.595 733.271 383.595C733.271 383.595 733.352 384.161 733.19 384.727C733.109 384.727 733.028 384.727 732.947 384.727C732.461 384.727 731.652 384.403 730.356 384.322C727.522 384.161 726.55 385.373 726.793 385.778C727.117 386.343 728.494 385.616 729.384 385.697C730.275 385.697 731.814 385.858 731.975 385.858C731.49 385.939 730.437 385.858 729.384 386.424C728.17 387.152 726.307 387.799 726.874 388.445C727.441 389.092 728.979 388.203 729.546 387.96C730.113 387.637 731.652 387.152 732.218 387.314C732.866 387.475 732.704 387.556 731.328 388.122C729.951 388.688 727.765 389.739 727.684 390.224C727.522 390.709 727.927 391.194 729.222 390.709C730.518 390.143 731.004 389.82 732.056 389.496C733.109 389.173 734 388.769 733.919 389.092C733.838 389.496 732.38 390.062 731.004 390.709C729.546 391.356 729.06 392.003 729.87 392.245C730.68 392.488 732.704 391.518 733.919 391.113C735.133 390.709 737.158 390.467 738.453 390.305C739.263 390.224 739.992 389.335 740.397 388.607C739.506 387.799 739.02 386.99 737.725 386.02Z" fill="#BEC7FA"/>
<path d="M686.064 332.743C686.064 332.743 685.74 332.42 685.092 333.066C685.335 333.309 685.578 333.551 685.821 333.713C685.983 333.39 686.064 333.066 686.064 332.743Z" fill="#B7D7F1"/>
<path d="M685.578 334.198C685.659 334.036 685.74 333.875 685.821 333.713C685.74 333.875 685.659 334.036 685.578 334.198Z" fill="#B7D7F1"/>
<path d="M686.063 332.743C686.063 332.743 686.063 332.743 686.144 332.824L686.063 332.743Z" fill="#B7D7F1"/>
<path d="M738.696 348.508C737.886 348.023 736.915 347.699 735.376 347.133C732.704 346.163 730.761 345.031 729.465 344.061L727.846 342.849C728.088 343.415 727.765 345.193 727.198 346.082C729.789 345.84 731.894 346.891 736.186 348.508C739.668 349.801 742.745 353.035 745.012 355.299C742.178 351.823 739.344 348.75 738.696 348.508Z" fill="#131377"/>
<path d="M716.509 335.977C716.348 335.815 716.914 335.411 717.238 335.411C717.562 335.411 718.129 335.735 717.886 335.896C717.643 335.977 716.752 336.22 716.509 335.977Z" fill="#9EAEEF"/>
<path d="M717.643 349.478L718.129 351.095H718.858L720.477 349.639C720.477 349.639 719.343 348.184 719.181 348.103C719.101 347.942 718.21 348.831 717.643 349.478Z" fill="#00C7B1"/>
<path d="M715.133 367.506C715.133 367.506 716.023 365.97 718.129 362.332L718.858 351.095H718.129L714.971 359.988C714.971 360.635 714.809 362.251 714.89 363.141C714.971 363.383 715.052 367.506 715.133 367.506Z" fill="#00C7B1"/>
<path d="M117.957 342.282C117.795 341.393 116.823 340.665 117.228 340.261C117.633 339.857 117.633 338.563 117.066 338.483C115.689 338.321 114.718 337.836 114.232 337.593C113.989 337.108 113.665 336.704 113.422 336.219C113.422 336.138 113.341 336.057 113.341 335.976C113.26 335.734 113.098 335.572 112.936 335.491C111.317 333.066 109.859 331.368 109.859 331.368L99.7378 337.917L102.815 345.84C102.896 345.92 102.896 346.082 102.977 346.163C103.22 346.163 103.382 346.163 103.624 346.163H103.705H103.786C106.459 346.163 108.807 347.861 110.183 350.044C111.803 349.882 113.422 349.558 114.961 348.831C115.528 348.588 116.499 347.942 116.499 347.942C117.552 347.133 119.252 345.274 119.171 344.465C119.171 343.253 118.119 343.172 117.957 342.282Z" fill="#8383FF"/>
<path d="M119.657 472.444H131.884C133.504 472.606 135.366 473.091 135.609 474.465C135.609 474.465 135.852 475.436 135.771 476.325C135.366 476.81 119.09 476.244 119.09 476.244L119.009 476.163C117.39 474.142 119.657 472.444 119.657 472.444Z" fill="#00C7B1"/>
<path d="M135.852 476.325L119.171 476.244L119.333 476.891H135.852V476.325Z" fill="#212B53"/>
<path d="M124.516 472.444H125.649L125.325 473.9H124.192L124.516 472.444Z" fill="white"/>
<path d="M126.864 472.444H127.998L127.674 473.9H126.621L126.864 472.444Z" fill="white"/>
<path d="M118.848 468.402L119.657 472.445C120.629 472.93 121.925 473.011 122.977 472.526L123.139 472.445L123.706 468.402H118.848Z" fill="#8383FF"/>
<path d="M91.0737 472.444H103.301C104.92 472.606 106.782 473.091 107.025 474.465C107.025 474.465 107.268 475.436 107.187 476.325C106.782 476.81 90.5069 476.244 90.5069 476.244L90.4259 476.163C88.7255 474.142 91.0737 472.444 91.0737 472.444Z" fill="#00C7B1"/>
<path d="M107.268 476.325L90.5878 476.244L90.6687 476.891H107.268V476.325Z" fill="#212B53"/>
<path d="M95.932 472.444H96.9847L96.6608 473.9H95.6082L95.932 472.444Z" fill="white"/>
<path d="M98.2803 472.444H99.333L99.0091 473.9H97.9564L98.2803 472.444Z" fill="white"/>
<path d="M91.5595 468.402L90.9927 472.445C91.9644 472.93 93.2599 473.011 94.3126 472.526L94.4745 472.445L96.4179 468.402H91.5595Z" fill="#8383FF"/>
<path d="M122.734 333.47C122.734 333.47 123.949 345.193 121.52 352.631C122.653 353.601 126.945 358.128 128.24 352.307C129.536 346.406 126.783 331.449 126.783 331.449L122.734 333.47Z" fill="#8383FF"/>
<path d="M116.661 332.582L114.232 334.118L115.123 335.897L117.633 334.765L116.661 332.582Z" fill="#1B1B7F"/>
<path d="M115.285 334.765C115.528 335.331 115.528 335.816 115.285 335.897C115.042 335.978 114.718 335.654 114.475 335.088C114.232 334.523 114.232 334.037 114.475 333.957C114.637 333.876 115.042 334.199 115.285 334.765Z" fill="#1B1B7F"/>
<path d="M145.245 324.012C145.245 324.012 145.245 323.931 145.245 324.012C144.84 322.961 144.03 321.344 142.977 319.808C141.277 317.383 140.791 316.251 140.791 316.251L116.256 332.258L117.876 335.25L145.326 325.144C145.245 324.74 145.245 324.336 145.245 324.012Z" fill="#202096"/>
<path d="M107.673 350.125L106.782 355.622H114.556L115.123 348.831L107.673 350.125Z" fill="#6F6FF7"/>
<path d="M127.755 363.707C127.755 363.707 136.985 360.797 139.82 356.835C142.735 352.874 137.795 331.369 137.795 331.369L138.443 327.488C138.767 325.305 137.147 323.284 134.88 323.284H132.451C131.398 323.284 130.751 324.335 131.155 325.224L134.394 332.501C134.394 332.501 136.824 348.831 133.423 350.044C129.374 351.499 124.759 351.823 124.759 351.823L127.755 363.707Z" fill="#8383FF"/>
<path d="M110.507 350.125L108.159 344.87L109.698 343.9C110.831 343.172 111.317 341.798 110.912 340.504L109.212 335.573C109.212 335.573 113.989 335.007 113.827 330.56C113.827 328.297 110.669 328.216 110.669 328.216C110.669 328.216 109.698 330.237 106.782 330.479C105.487 330.318 102.086 330.803 99.7378 334.845C98.1993 337.594 98.8471 341.879 100.224 345.113C101.438 348.023 104.596 349.64 107.673 350.044H110.507V350.125Z" fill="#212432"/>
<path d="M101.114 394.186C101.114 394.186 101.6 405.342 104.029 417.469C104.758 421.026 104.434 424.745 103.301 428.222C97.7945 444.552 90.1021 469.049 90.1021 469.049H96.9848C96.9848 469.049 112.532 440.025 116.499 425.715C120.467 411.325 121.196 406.797 121.196 406.797L116.418 394.266H101.114V394.186Z" fill="#212432"/>
<path d="M106.863 342.445C106.621 343.253 107.187 344.385 108.159 344.87C109.131 345.355 110.183 345.112 110.426 344.304C110.669 343.496 110.102 342.364 109.131 341.879C108.159 341.313 107.106 341.555 106.863 342.445Z" fill="#8383FF"/>
<path d="M124.111 394.186H99.9807C99.4139 394.186 99.0091 393.62 99.252 393.135L100.548 389.658C102.086 383.999 101.114 375.834 100.79 372.277L101.114 365.566C101.114 359.26 105.892 354.086 112.127 353.44L127.674 351.58C127.674 351.58 129.536 354.41 134.637 360.877C128.483 364.677 121.439 366.375 121.439 366.375L124.758 393.539C124.758 393.862 124.516 394.186 124.111 394.186Z" fill="#FFCB02"/>
<path d="M101.114 394.186C101.114 394.186 104.272 405.586 115.932 418.359C117.876 420.3 120.71 424.342 120.305 430.001L117.876 469.049H124.839C124.839 469.049 133.342 436.63 131.479 420.623C129.617 404.615 123.463 394.105 123.463 394.105H101.114V394.186Z" fill="#343A4D"/>
<path d="M141.52 321.344C142.734 323.85 144.354 325.548 145.164 325.144C145.973 324.739 145.65 322.395 144.435 319.889C143.22 317.382 141.601 315.685 140.791 316.089C139.981 316.493 140.305 318.838 141.52 321.344Z" fill="#B8F4E9"/>
<path d="M121.762 328.701L122.005 328.782C122.734 329.105 123.544 329.186 124.354 328.943L124.516 328.862C125.811 328.458 126.783 327.407 127.188 326.194C127.35 325.629 126.864 325.063 126.297 325.224L124.758 325.548C124.192 325.709 123.625 326.033 123.301 326.518L121.762 328.701Z" fill="#8383FF"/>
<path d="M121.439 366.375C121.439 366.375 118.524 367.426 114.88 367.426C114.88 367.426 118.928 370.256 121.924 370.175L121.439 366.375Z" fill="#E09E1B"/>
<path d="M388.488 290.703C388.488 290.703 380.148 305.175 384.682 326.842C384.682 326.842 391.808 333.956 391.079 344.223C390.35 354.41 373.427 352.065 360.795 357.805C348.163 363.546 331.24 378.987 320.309 365.162C309.377 351.338 336.017 339.939 347.678 333.309C359.338 326.68 356.504 294.746 366.706 286.5C374.318 280.355 397.638 280.517 397.881 290.623L388.488 290.703Z" fill="#FF6C95"/>
<path d="M397.962 290.542C397.881 287.147 395.209 284.964 391.403 283.67C376.747 280.679 379.338 314.392 379.581 327.893C379.824 342.122 353.022 359.584 334.965 361.767C319.094 363.708 321.199 352.551 321.928 349.802C317.555 354.41 315.936 359.584 320.308 365.163C331.24 378.987 348.163 363.465 360.795 357.806C373.427 352.066 390.35 354.491 391.079 344.224C391.808 334.037 384.682 326.842 384.682 326.842C380.148 305.175 388.488 290.704 388.488 290.704L397.962 290.542Z" fill="#E85B8E"/>
<path d="M332.94 350.853C329.782 348.509 326.624 347.377 325.086 346.892C324.681 347.215 324.276 347.619 323.871 347.943C323.952 347.943 328.001 348.913 332.131 351.904C337.556 355.946 340.309 361.525 340.309 368.558C340.795 368.397 341.2 368.154 341.685 367.992C341.523 359.099 336.827 353.763 332.94 350.853Z" fill="#D34C83"/>
<path d="M376.909 353.44C377.232 350.772 378.852 338.564 385.249 327.488C384.925 327.084 384.682 326.922 384.682 326.922C384.601 326.761 384.601 326.518 384.601 326.356C384.439 326.437 384.277 326.518 384.196 326.68C377.151 338.888 375.694 352.308 375.532 353.844C375.937 353.682 376.423 353.521 376.909 353.44Z" fill="#D34C83"/>
<path d="M359.661 301.86C359.338 303.154 359.095 304.447 358.771 305.741C362.415 304.69 374.803 301.779 383.791 306.145C383.953 304.771 384.196 303.396 384.439 302.184C381.686 301.133 371.807 298.222 359.661 301.86Z" fill="#FFB81D"/>
<path d="M379.5 304.609C380.957 304.932 382.415 305.417 383.791 306.145C383.872 305.417 383.953 304.77 384.115 304.123C384.196 303.477 384.358 302.83 384.52 302.183C383.629 301.86 382.01 301.375 379.824 300.89C379.743 302.102 379.581 303.315 379.5 304.609Z" fill="#EF9500"/>
<path d="M362.009 293.776C361.524 294.989 361.119 296.363 360.714 297.738C364.358 296.767 376.585 293.857 385.573 297.98C385.977 296.525 386.463 295.312 386.868 294.261C384.52 293.453 374.56 290.219 362.009 293.776Z" fill="#FFB81D"/>
<path d="M380.39 296.444C382.172 296.767 383.872 297.333 385.492 298.061C385.897 296.605 386.382 295.393 386.787 294.342C385.897 294.018 383.953 293.372 381.2 292.806C380.876 293.938 380.633 295.15 380.39 296.444Z" fill="#EF9500"/>
<path d="M388.488 290.704L395.694 290.542C395.209 289.248 394.156 287.308 392.536 287.146C390.755 286.985 389.217 289.41 388.488 290.704Z" fill="#D34C83"/>
<path d="M495.534 285.368C495.534 285.368 500.878 293.857 498.611 306.873C498.611 306.873 494.481 311.319 495.129 317.383C495.777 323.446 505.818 321.668 513.51 324.821C521.203 327.973 531.648 336.786 537.883 328.297C544.118 319.808 527.923 313.583 520.798 309.864C513.672 306.145 514.644 286.985 508.328 282.296C503.631 278.819 489.704 279.466 489.785 285.449L495.534 285.368Z" fill="#9494FF"/>
<path d="M489.866 285.529C489.866 283.508 491.404 282.133 493.591 281.244C502.255 279.142 501.526 299.354 501.688 307.438C501.85 315.927 518.288 325.79 529.138 326.679C538.693 327.488 537.154 320.859 536.668 319.242C539.341 321.91 540.474 324.982 537.964 328.377C531.729 336.866 521.284 328.054 513.591 324.901C505.899 321.748 495.858 323.607 495.21 317.463C494.562 311.4 498.692 306.953 498.692 306.953C500.878 293.937 495.615 285.448 495.615 285.448L489.866 285.529Z" fill="#7A7AFC"/>
<path d="M530.11 320.051C531.972 318.596 533.834 317.787 534.725 317.464C534.968 317.626 535.211 317.868 535.535 318.111C535.535 318.111 533.106 318.757 530.676 320.698C527.518 323.204 525.98 326.68 526.142 330.803C525.899 330.723 525.575 330.561 525.332 330.48C525.17 325.144 527.842 321.91 530.11 320.051Z" fill="#5A52FF"/>
<path d="M503.874 322.638C503.631 321.021 502.336 313.826 498.287 307.277C498.449 307.035 498.611 306.873 498.611 306.873C498.611 306.792 498.611 306.631 498.692 306.55C498.773 306.55 498.854 306.631 498.935 306.711C503.388 313.826 504.603 321.83 504.684 322.719C504.441 322.719 504.198 322.638 503.874 322.638Z" fill="#5A52FF"/>
<path d="M513.024 291.431C513.267 292.159 513.429 292.967 513.591 293.695C511.405 293.129 503.874 291.674 498.611 294.503C498.449 293.695 498.287 292.887 498.125 292.159C499.826 291.431 505.656 289.491 513.024 291.431Z" fill="#FF6C95"/>
<path d="M501.202 293.452C500.312 293.695 499.502 294.018 498.692 294.422C498.611 294.018 498.53 293.614 498.449 293.21C498.368 292.805 498.287 292.482 498.206 292.078C498.773 291.835 499.664 291.512 500.959 291.188C501.04 291.997 501.121 292.725 501.202 293.452Z" fill="#E85B8E"/>
<path d="M511.405 286.662C511.729 287.389 512.053 288.198 512.296 289.006C510.109 288.521 502.741 287.066 497.477 289.734C497.154 288.925 496.911 288.117 496.668 287.551C497.963 286.985 503.874 284.802 511.405 286.662Z" fill="#FF6C95"/>
<path d="M514.239 296.282C514.482 297.09 514.644 297.98 514.887 298.788C512.7 298.303 504.441 297.09 499.178 299.758C499.097 298.707 499.097 298.06 499.016 297.333C500.392 296.767 506.627 294.422 514.239 296.282Z" fill="#FF6C95"/>
<path d="M500.473 288.602C499.421 288.844 498.368 289.168 497.477 289.653C497.154 288.844 496.911 288.036 496.668 287.47C497.154 287.227 498.368 286.823 499.988 286.419C500.15 287.147 500.312 287.874 500.473 288.602Z" fill="#E85B8E"/>
<path d="M495.534 285.368L491.242 285.448C491.485 284.64 492.052 283.508 493.024 283.346C494.077 283.185 495.129 284.64 495.534 285.368Z" fill="#5A52FF"/>
<path d="M501.526 298.869C500.635 299.111 499.988 299.354 499.178 299.758C499.097 299.354 499.097 297.818 499.016 297.252C499.583 297.009 500.149 296.767 501.445 296.443C501.526 297.252 501.445 298.141 501.526 298.869Z" fill="#E85B8E"/>
<path d="M296.988 390.143C297.474 390.305 298.041 390.062 298.365 389.658L304.842 380.118C305.247 379.552 305.085 378.744 304.519 378.34C303.952 377.936 303.142 378.097 302.737 378.663L296.259 388.203C295.854 388.769 296.016 389.577 296.583 389.982C296.745 390.062 296.907 390.143 296.988 390.143Z" fill="#00C7B1"/>
<path opacity="0.6" d="M311.909 377.333C313.811 374.575 313.323 370.944 310.818 369.222C308.314 367.5 304.741 368.34 302.839 371.098C300.937 373.856 301.426 377.488 303.93 379.209C306.435 380.931 310.007 380.091 311.909 377.333Z" fill="white"/>
<path d="M309.863 371.71C309.701 371.548 309.539 371.387 309.377 371.225C308.81 370.821 308.162 370.659 307.595 370.74" stroke="white" stroke-width="1.1422" stroke-miterlimit="10" stroke-linecap="round"/>
<path d="M306.138 371.145C305.976 371.225 305.895 371.306 305.733 371.387" stroke="white" stroke-width="1.2979" stroke-miterlimit="10" stroke-linecap="round"/>
<path d="M303.385 380.037C301.928 379.067 301.037 377.45 300.794 375.672C300.551 373.893 301.037 372.034 302.089 370.497C303.142 368.961 304.681 367.91 306.462 367.506C308.243 367.102 310.025 367.425 311.482 368.395C312.94 369.366 313.831 370.983 314.073 372.761C314.316 374.54 313.831 376.399 312.778 377.935C311.725 379.471 310.187 380.522 308.405 380.927C307.353 381.169 306.3 381.169 305.328 380.927C304.6 380.765 303.952 380.441 303.385 380.037ZM306.867 369.527C305.652 369.851 304.519 370.578 303.79 371.71C302.251 373.974 302.575 376.965 304.6 378.339C306.624 379.714 309.539 378.986 311.078 376.723C311.806 375.591 312.211 374.297 311.968 373.004C311.806 371.791 311.158 370.74 310.268 370.093C309.863 369.851 309.458 369.608 308.972 369.527C308.243 369.366 307.596 369.366 306.867 369.527Z" fill="#00C7B1"/>
<g opacity="0.2">
<path opacity="0.2" d="M297.069 389.092C297.231 389.173 297.474 389.092 297.555 388.931L302.818 381.088C302.98 380.846 302.899 380.603 302.737 380.442C302.494 380.28 302.251 380.361 302.089 380.522L296.826 388.365C296.664 388.607 296.745 388.85 296.907 389.011C296.907 389.011 296.988 389.011 297.069 389.092Z" fill="white"/>
</g>
<path d="M266.785 359.019C267.028 359.423 268 360.393 267.757 360.878C267.595 361.363 266.218 361.444 266.218 361.444L266.785 359.019Z" fill="#9EAEEF"/>
<path d="M262.251 370.256C262.251 369.851 262.17 366.779 262.575 366.052C263.384 366.213 264.599 366.537 264.923 366.375C267.271 364.677 267.514 357.159 266.542 353.197C265.328 348.347 255.692 347.053 255.773 355.542C255.773 363.06 255.611 368.154 255.53 369.124C254.396 370.498 263.06 371.307 262.251 370.256Z" fill="#BEC7FA"/>
<path d="M251.076 373.327C251.076 373.327 241.522 391.76 242.169 395.802C242.817 399.845 251.076 406.878 251.076 406.878L252.372 404.614L248.161 395.156L253.587 379.633L251.076 373.327Z" fill="#BEC7FA"/>
<path d="M262.575 366.132L262.251 367.344L258.769 364.596L262.575 366.132Z" fill="#9EAEEF"/>
<path d="M269.943 388.769V373.894C263.951 369.609 259.66 370.094 259.66 370.094C258.607 370.013 258.364 370.013 256.987 370.013C256.987 370.013 246.866 369.285 248.728 385.131C252.777 398.632 250.834 404.615 250.834 404.615C250.834 404.615 261.36 408.9 267.19 405.908C265.733 402.432 268.405 393.135 269.943 388.769C269.943 388.688 269.943 388.688 269.943 388.769Z" fill="#9494FF"/>
<path d="M245.408 487.078L248.242 487.563C248.809 484.087 257.554 467.594 258.283 458.944C259.093 449.404 261.279 438.813 261.279 438.813L251.886 435.983C251.886 435.983 249.538 435.983 252.129 455.386C246.218 463.228 244.599 480.691 245.408 487.078Z" fill="#9EAEEF"/>
<path d="M252.291 429.03C252.291 429.03 254.477 442.289 257.554 456.518C254.315 465.087 259.255 489.018 259.336 488.937C259.741 488.614 261.36 490.635 261.36 490.635C261.36 490.635 264.923 469.534 265.733 459.994C266.542 450.454 267.757 438.893 267.757 438.893L252.291 429.03Z" fill="#BEC7FA"/>
<path d="M259.012 487.562C259.012 487.562 257.635 488.694 257.878 490.15C258.121 491.605 258.445 495 258.445 495H259.821L259.741 491.847C259.741 491.605 262.656 495 263.222 495H270.51C270.51 495 270.996 492.898 266.704 492.171C262.494 491.524 259.012 487.562 259.012 487.562Z" fill="#202096"/>
<path d="M255.044 367.668C255.044 367.668 251.076 370.013 251.076 373.732C251.076 375.995 251.967 377.37 253.02 378.987C254.72 381.655 254.72 385.131 252.858 387.637L252.777 387.718C252.048 388.607 251.886 389.578 252.129 390.467C252.858 393.943 257.716 394.509 259.579 391.437C260.226 390.305 260.955 388.931 261.441 387.395C262.251 384.808 261.441 383.191 260.469 382.221C259.579 381.412 259.498 380.038 260.388 379.229C261.927 377.693 263.384 375.349 261.522 373.328C258.364 369.932 257.473 366.698 257.473 366.698L255.044 367.668Z" fill="#202096"/>
<path d="M255.044 366.375C257.311 366.617 253.749 366.375 257.311 366.617C257.392 364.758 263.546 359.745 264.68 358.775C266.056 357.563 266.785 356.107 267.19 354.814C267.676 353.278 267.19 351.58 265.895 350.529C263.465 348.67 259.336 345.921 256.745 346.891C253.749 347.942 252.372 351.337 251.886 353.035C251.481 354.41 251.805 356.997 255.044 366.375Z" fill="#202096"/>
<path d="M257.23 367.669H255.044C254.558 367.669 254.153 367.264 254.153 366.779V366.537C254.153 366.052 254.558 365.647 255.044 365.647H257.23C257.716 365.647 258.121 366.052 258.121 366.537V366.779C258.202 367.264 257.797 367.669 257.23 367.669Z" fill="#FF6C95"/>
<path d="M257.554 365.728C257.554 365.728 257.392 366.86 256.178 366.86C255.368 366.86 255.449 366.456 255.044 366.375C254.882 366.294 254.639 366.294 254.477 366.375C254.072 366.537 253.101 368.477 248.485 367.022C247.514 366.698 246.056 366.617 244.599 367.426C241.684 369.043 241.198 370.498 241.198 370.498L242.25 371.792C242.25 371.792 244.518 367.507 248.647 367.992C250.267 368.234 251.805 369.124 253.991 368.073C254.234 367.992 254.639 367.668 254.801 367.588C254.963 367.507 254.558 366.86 254.72 366.941C255.449 367.264 257.23 367.588 257.878 366.941C258.121 366.698 257.635 365.647 257.554 365.728Z" fill="#FF6C95"/>
<path d="M266.785 402.594C266.785 402.594 269.133 416.014 269.133 422.643C269.133 426.282 267.433 441.885 267.433 441.885C267.433 441.885 253.506 442.289 250.672 442.289C250.348 431.294 246.218 424.018 246.218 415.125C246.218 408.9 251.724 403.483 251.724 403.483L266.785 402.594Z" fill="#FF6C95"/>
<path d="M278.364 392.973C272.129 375.187 269.943 373.812 269.943 373.812C269.943 373.812 265.895 375.106 265.895 379.957C265.895 384.08 268.648 395.641 273.83 399.279C275.287 400.249 277.15 400.33 278.769 399.602C287.109 395.722 284.437 392.245 278.364 392.973Z" fill="#BEC7FA"/>
<path d="M248.566 485.137L248.404 488.128C248.323 488.775 248.566 489.422 248.89 489.907C249.295 490.473 249.943 491.281 251.076 492.17C248.971 492.817 247.028 490.473 246.056 488.936C245.57 488.209 245.408 487.239 245.489 486.349L245.813 484.005L248.566 485.137Z" fill="#9EAEEF"/>
<path d="M245.408 486.835C245.408 486.835 243.546 486.997 243.222 488.452C242.898 489.826 242.007 492.737 242.007 492.737L243.06 493.545L244.518 490.716C244.518 490.716 247.595 494.839 248.08 495.081H256.016C256.016 495.081 256.016 492.413 251.076 492.333C246.461 492.09 245.408 486.835 245.408 486.835Z" fill="#202096"/>
<path d="M278.526 399.603C282.494 397.743 290.51 392.246 294.235 390.467C297.96 388.689 300.146 387.233 303.385 384.404C306.057 382.14 306.624 380.119 307.11 378.825C307.191 378.744 307.029 378.583 306.948 378.664C305.895 379.553 302.818 382.14 301.199 383.191C301.118 383.272 300.956 383.191 300.956 383.029C301.442 381.736 303.142 377.451 301.28 378.987C300.47 379.634 299.66 380.846 298.527 381.978C297.15 383.353 296.421 383.353 296.502 385.94C293.83 386.748 281.28 389.659 277.879 392.084C274.397 394.671 278.526 399.603 278.526 399.603Z" fill="#BEC7FA"/>
<defs>
<linearGradient id="paint0_linear_9:9074" x1="45" y1="470.463" x2="749.399" y2="470.463" gradientUnits="userSpaceOnUse">
<stop offset="0.6658" stop-color="#6249FF"/>
<stop offset="1" stop-color="#483DCC" stop-opacity="0"/>
</linearGradient>
</defs>
</svg>
